<?xml version="1.0" encoding="utf-8"?>
<!-- Generator: Adobe Illustrator 16.0.0, SVG Export Plug-In . SVG Version: 6.00 Build 0)  -->
<!DOCTYPE svg PUBLIC "-//W3C//DTD SVG 1.1//EN" "http://www.w3.org/Graphics/SVG/1.1/DTD/svg11.dtd">
<svg version="1.1" id="Livello_1" xmlns="http://www.w3.org/2000/svg" xmlns:xlink="http://www.w3.org/1999/xlink" x="0px" y="0px"
	 width="157.026px" height="53.319px" viewBox="0 0 157.026 53.319" enable-background="new 0 0 157.026 53.319"
	 xml:space="preserve">
<g>
	<path fill="#222222" d="M4.238,9.296c-1.026-0.047-1.782-0.07-2.268-0.07c-0.159,0-0.369,0.009-0.63,0.028
		C1.135,9.282,0.855,9.296,0.5,9.296c-0.271,0-0.405-0.062-0.405-0.182c0-0.075,0.027-0.122,0.084-0.14
		C0.234,8.956,0.36,8.927,0.557,8.89c0.354-0.065,0.6-0.173,0.734-0.322C1.427,8.419,1.494,8.176,1.494,7.84v-6.3
		c0-0.327-0.067-0.562-0.203-0.707c-0.135-0.145-0.38-0.25-0.734-0.315C0.379,0.49,0.258,0.46,0.192,0.427S0.095,0.341,0.095,0.266
		c0-0.121,0.135-0.182,0.405-0.182l0.799,0.014c0.14,0.009,0.392,0.014,0.756,0.014c0.383,0,0.863-0.023,1.441-0.07
		c0.196-0.009,0.376-0.019,0.539-0.028S4.337,0,4.448,0c1.214,0,2.217,0.194,3.01,0.581c0.794,0.387,1.375,0.915,1.743,1.582
		C9.57,2.831,9.755,3.589,9.755,4.438c0,0.877-0.22,1.692-0.658,2.443C8.657,7.632,8.065,8.228,7.318,8.666
		C6.571,9.105,5.76,9.324,4.883,9.324L4.238,9.296z M6.64,8.302c0.564-0.355,1.003-0.847,1.315-1.477
		c0.313-0.63,0.47-1.346,0.47-2.149c0-0.859-0.188-1.61-0.561-2.254s-0.86-1.136-1.463-1.477C5.8,0.604,5.172,0.434,4.519,0.434
		c-0.495,0-0.866,0.014-1.113,0.042S2.965,0.579,2.824,0.7c-0.14,0.121-0.21,0.317-0.21,0.588v6.244
		c0,0.513,0.189,0.859,0.567,1.036C3.56,8.746,4.07,8.834,4.715,8.834C5.433,8.834,6.074,8.657,6.64,8.302z"/>
	<path fill="#222222" d="M12.113,9.058c-0.425-0.243-0.761-0.579-1.008-1.008c-0.248-0.429-0.371-0.91-0.371-1.442
		c0-0.513,0.138-1.017,0.413-1.512c0.274-0.495,0.648-0.896,1.12-1.204C12.738,3.584,13.249,3.43,13.8,3.43
		c0.532,0,1.018,0.128,1.456,0.385c0.438,0.257,0.786,0.602,1.043,1.036s0.386,0.898,0.386,1.393c0,0.56-0.122,1.083-0.364,1.568
		c-0.243,0.485-0.603,0.875-1.078,1.169s-1.05,0.441-1.722,0.441C13.007,9.422,12.538,9.3,12.113,9.058z M15.256,8.232
		c0.187-0.364,0.28-0.915,0.28-1.652c0-0.448-0.084-0.882-0.252-1.302c-0.168-0.42-0.401-0.76-0.7-1.022
		c-0.299-0.261-0.64-0.392-1.021-0.392c-0.271,0-0.504,0.042-0.7,0.126s-0.374,0.229-0.532,0.434
		c-0.168,0.214-0.285,0.478-0.35,0.791c-0.065,0.313-0.099,0.67-0.099,1.071c0,0.467,0.084,0.908,0.252,1.323
		c0.168,0.416,0.399,0.751,0.693,1.008s0.623,0.385,0.987,0.385C14.514,9.002,14.995,8.746,15.256,8.232z"/>
	<path fill="#222222" d="M18.743,8.995c-0.252-0.285-0.378-0.698-0.378-1.239V4.508c0-0.084-0.031-0.14-0.092-0.168
		c-0.061-0.028-0.18-0.042-0.356-0.042h-0.084c-0.047,0-0.087-0.028-0.119-0.084c-0.033-0.056-0.049-0.121-0.049-0.196
		c0-0.019,0.012-0.044,0.035-0.077c0.022-0.032,0.044-0.058,0.062-0.077c0.504-0.355,0.919-0.728,1.246-1.12
		c0.037-0.047,0.074-0.086,0.112-0.119c0.037-0.033,0.079-0.049,0.126-0.049c0.13,0,0.191,0.051,0.182,0.154l-0.07,0.63v0.056
		c0,0.084,0.028,0.14,0.084,0.168c0.057,0.028,0.141,0.042,0.252,0.042h1.597c0.037,0,0.069,0.03,0.098,0.091
		c0.028,0.061,0.042,0.133,0.042,0.217S21.417,4.1,21.389,4.179s-0.061,0.119-0.098,0.119h-1.386c-0.253,0-0.409,0.019-0.47,0.056
		c-0.061,0.038-0.091,0.149-0.091,0.336v2.758c0,0.383,0.079,0.679,0.238,0.889c0.158,0.21,0.387,0.315,0.686,0.315
		c0.262,0,0.47-0.019,0.623-0.056c0.154-0.037,0.292-0.103,0.413-0.196l0.056-0.028c0.065,0,0.099,0.065,0.099,0.196
		c0,0.056-0.084,0.157-0.252,0.301s-0.376,0.273-0.623,0.385c-0.248,0.111-0.502,0.168-0.763,0.168
		C19.354,9.422,18.995,9.28,18.743,8.995z"/>
	<path fill="#222222" d="M23.139,8.995c-0.252-0.285-0.378-0.698-0.378-1.239V4.508c0-0.084-0.031-0.14-0.092-0.168
		c-0.061-0.028-0.18-0.042-0.356-0.042h-0.084c-0.047,0-0.087-0.028-0.119-0.084c-0.033-0.056-0.049-0.121-0.049-0.196
		c0-0.019,0.012-0.044,0.035-0.077c0.022-0.032,0.044-0.058,0.062-0.077c0.504-0.355,0.919-0.728,1.246-1.12
		c0.037-0.047,0.074-0.086,0.112-0.119c0.037-0.033,0.079-0.049,0.126-0.049c0.13,0,0.191,0.051,0.182,0.154l-0.07,0.63v0.056
		c0,0.084,0.028,0.14,0.084,0.168c0.057,0.028,0.141,0.042,0.252,0.042h1.597c0.037,0,0.069,0.03,0.098,0.091
		c0.028,0.061,0.042,0.133,0.042,0.217S25.812,4.1,25.784,4.179s-0.061,0.119-0.098,0.119h-1.386c-0.253,0-0.409,0.019-0.47,0.056
		C23.771,4.392,23.74,4.503,23.74,4.69v2.758c0,0.383,0.079,0.679,0.238,0.889c0.158,0.21,0.387,0.315,0.686,0.315
		c0.262,0,0.47-0.019,0.623-0.056C25.441,8.559,25.579,8.494,25.7,8.4l0.056-0.028c0.065,0,0.099,0.065,0.099,0.196
		c0,0.056-0.084,0.157-0.252,0.301s-0.376,0.273-0.623,0.385c-0.248,0.111-0.502,0.168-0.763,0.168
		C23.749,9.422,23.391,9.28,23.139,8.995z"/>
	<path fill="#222222" d="M27.037,9.191c-0.154-0.154-0.231-0.333-0.231-0.539c0-0.214,0.077-0.396,0.231-0.546
		c0.153-0.149,0.333-0.224,0.539-0.224c0.214,0,0.396,0.075,0.546,0.224c0.149,0.149,0.224,0.332,0.224,0.546
		c0,0.206-0.074,0.385-0.224,0.539c-0.149,0.154-0.332,0.231-0.546,0.231C27.37,9.422,27.19,9.345,27.037,9.191z"/>
	<path fill="#222222" d="M30.391,9.29c-0.252-0.089-0.467-0.213-0.645-0.372c-0.074-0.149-0.126-0.522-0.153-1.12
		c0-0.084,0.061-0.126,0.182-0.126c0.103,0,0.159,0.033,0.168,0.098c0.112,0.43,0.296,0.749,0.553,0.959s0.534,0.315,0.833,0.315
		c0.271,0,0.502-0.091,0.693-0.273s0.287-0.408,0.287-0.679c0-0.243-0.082-0.455-0.245-0.637s-0.46-0.408-0.889-0.679
		c-0.485-0.298-0.829-0.576-1.029-0.833c-0.201-0.256-0.301-0.558-0.301-0.903c0-0.467,0.163-0.852,0.49-1.155
		c0.326-0.303,0.793-0.455,1.399-0.455c0.262,0,0.487,0.026,0.679,0.077c0.191,0.052,0.339,0.115,0.441,0.189
		c0.074,0.103,0.138,0.264,0.189,0.483c0.051,0.219,0.076,0.427,0.076,0.623c0,0.065-0.047,0.098-0.14,0.098
		c-0.056,0-0.112-0.011-0.168-0.035s-0.089-0.054-0.098-0.091c-0.131-0.317-0.287-0.555-0.47-0.714
		c-0.182-0.159-0.403-0.238-0.665-0.238c-0.242,0-0.452,0.075-0.63,0.224c-0.177,0.149-0.266,0.35-0.266,0.602
		c0,0.224,0.067,0.418,0.203,0.581c0.135,0.164,0.39,0.353,0.763,0.567c0.588,0.336,1.003,0.637,1.246,0.903
		c0.242,0.266,0.364,0.604,0.364,1.015c0,0.504-0.191,0.915-0.574,1.232c-0.383,0.317-0.877,0.476-1.484,0.476
		C30.913,9.422,30.643,9.377,30.391,9.29z"/>
	<path fill="#222222" d="M34.912,9.29c-0.252-0.089-0.467-0.213-0.645-0.372c-0.074-0.149-0.126-0.522-0.153-1.12
		c0-0.084,0.061-0.126,0.182-0.126c0.103,0,0.159,0.033,0.168,0.098c0.112,0.43,0.296,0.749,0.553,0.959s0.534,0.315,0.833,0.315
		c0.271,0,0.502-0.091,0.693-0.273s0.287-0.408,0.287-0.679c0-0.243-0.082-0.455-0.245-0.637s-0.46-0.408-0.889-0.679
		c-0.485-0.298-0.829-0.576-1.029-0.833c-0.201-0.256-0.301-0.558-0.301-0.903c0-0.467,0.163-0.852,0.49-1.155
		c0.326-0.303,0.793-0.455,1.399-0.455c0.262,0,0.487,0.026,0.679,0.077c0.191,0.052,0.339,0.115,0.441,0.189
		c0.074,0.103,0.138,0.264,0.189,0.483c0.051,0.219,0.076,0.427,0.076,0.623c0,0.065-0.047,0.098-0.14,0.098
		c-0.056,0-0.112-0.011-0.168-0.035s-0.089-0.054-0.098-0.091c-0.131-0.317-0.287-0.555-0.47-0.714
		c-0.182-0.159-0.403-0.238-0.665-0.238c-0.242,0-0.452,0.075-0.63,0.224c-0.177,0.149-0.266,0.35-0.266,0.602
		c0,0.224,0.067,0.418,0.203,0.581c0.135,0.164,0.39,0.353,0.763,0.567c0.588,0.336,1.003,0.637,1.246,0.903
		c0.242,0.266,0.364,0.604,0.364,1.015c0,0.504-0.191,0.915-0.574,1.232c-0.383,0.317-0.877,0.476-1.484,0.476
		C35.435,9.422,35.164,9.377,34.912,9.29z"/>
	<path fill="#222222" d="M39.364,9.233c-0.177-0.126-0.324-0.285-0.44-0.476c-0.117-0.191-0.176-0.371-0.176-0.539
		c0-0.29,0.077-0.518,0.231-0.686s0.408-0.327,0.763-0.476l1.429-0.588c0.177-0.075,0.284-0.14,0.321-0.196
		c0.037-0.056,0.061-0.177,0.07-0.364l0.028-0.896c0.009-0.252-0.062-0.464-0.21-0.637c-0.149-0.172-0.355-0.259-0.616-0.259
		c-0.141,0-0.28,0.023-0.42,0.07c-0.141,0.047-0.257,0.107-0.351,0.182c-0.093,0.065-0.14,0.201-0.14,0.406l0.014,0.252
		c0,0.075-0.119,0.175-0.356,0.301c-0.238,0.126-0.428,0.189-0.567,0.189c-0.047,0-0.084-0.012-0.112-0.035
		C38.805,5.458,38.79,5.427,38.79,5.39c0-0.149,0.05-0.31,0.147-0.483s0.235-0.334,0.413-0.483c0.317-0.29,0.674-0.527,1.071-0.714
		c0.396-0.187,0.734-0.28,1.015-0.28c0.336,0,0.613,0.119,0.833,0.357c0.219,0.238,0.324,0.534,0.314,0.889l-0.069,3.36
		c-0.01,0.196,0.032,0.355,0.126,0.476c0.093,0.121,0.219,0.182,0.378,0.182c0.233,0,0.406-0.051,0.518-0.154
		c0.047-0.046,0.084-0.07,0.112-0.07c0.047,0,0.084,0.014,0.112,0.042c0.027,0.028,0.042,0.065,0.042,0.112
		c0,0.038-0.015,0.086-0.042,0.147c-0.028,0.061-0.065,0.114-0.112,0.161c-0.149,0.149-0.311,0.269-0.483,0.357
		c-0.173,0.088-0.333,0.133-0.482,0.133c-0.43,0-0.771-0.243-1.022-0.729h-0.042c-0.308,0.252-0.602,0.437-0.882,0.554
		c-0.28,0.116-0.569,0.175-0.868,0.175C39.71,9.422,39.542,9.359,39.364,9.233z M41.353,8.414c0.056-0.056,0.098-0.126,0.126-0.21
		s0.047-0.205,0.056-0.364l0.028-0.686V7.07c0-0.075-0.01-0.128-0.028-0.161S41.483,6.86,41.437,6.86
		c-0.056,0-0.149,0.023-0.28,0.07c-0.467,0.168-0.803,0.345-1.008,0.532c-0.205,0.187-0.308,0.369-0.308,0.546
		c0,0.233,0.067,0.415,0.203,0.546c0.135,0.131,0.296,0.196,0.482,0.196C40.854,8.75,41.129,8.638,41.353,8.414z"/>
	<path fill="#005951" d="M0.413,33.01c-0.116-0.059-0.175-0.138-0.175-0.237c0-0.25,0.208-0.426,0.625-0.525
		c0.65-0.133,1.092-0.312,1.325-0.537c0.233-0.226,0.35-0.613,0.35-1.163v-11c0-0.649-0.108-1.125-0.324-1.425
		c-0.217-0.3-0.617-0.508-1.2-0.625c-0.434-0.083-0.65-0.25-0.65-0.5c0-0.233,0.2-0.35,0.601-0.35c0.482,0,1.158,0.017,2.024,0.05
		c0.833,0.033,1.458,0.05,1.875,0.05h3.976c0.433,0,1.074-0.059,1.925-0.175c0.566-0.066,0.925-0.101,1.075-0.101
		c0.133,0,0.254,0.034,0.362,0.101s0.171,0.167,0.188,0.3c0.083,1.05,0.125,2.084,0.125,3.1c0,0.15-0.025,0.271-0.075,0.363
		s-0.117,0.137-0.2,0.137c-0.1,0-0.196-0.033-0.287-0.1c-0.092-0.066-0.146-0.158-0.163-0.275c-0.25-0.816-0.517-1.375-0.8-1.675
		c-0.434-0.45-1.024-0.675-1.774-0.675H6.938c-0.384,0-0.675,0.108-0.875,0.325s-0.3,0.509-0.3,0.875v2.225v2.425
		c0,0.384,0.158,0.575,0.475,0.575l1.45-0.024c0.267-0.017,0.642-0.025,1.125-0.025c0.366,0,0.666-0.104,0.9-0.312
		c0.232-0.208,0.433-0.504,0.6-0.888c0.033-0.116,0.1-0.216,0.2-0.3c0.1-0.083,0.191-0.125,0.274-0.125
		c0.084,0,0.163,0.046,0.238,0.138c0.074,0.092,0.104,0.204,0.087,0.337c-0.066,0.601-0.1,1.159-0.1,1.676
		c0,0.399,0.024,0.975,0.075,1.725v0.125c0,0.3-0.075,0.45-0.226,0.45c-0.134,0-0.254-0.062-0.362-0.188s-0.188-0.263-0.237-0.413
		c-0.134-0.433-0.3-0.737-0.5-0.912s-0.442-0.263-0.726-0.263l-1.199-0.024c-0.684,0-1.192,0.008-1.525,0.024
		c-0.384,0.034-0.575,0.233-0.575,0.601c0,1.066,0.017,2.649,0.05,4.75c0.017,0.517,0.154,0.899,0.413,1.149
		c0.258,0.25,0.729,0.442,1.412,0.575c0.217,0.05,0.375,0.112,0.476,0.188c0.1,0.075,0.149,0.18,0.149,0.312
		c0,0.217-0.184,0.325-0.55,0.325c-0.65,0-1.275-0.025-1.875-0.075c-0.733-0.033-1.242-0.05-1.525-0.05
		c-0.55,0-1.1,0.024-1.649,0.075c-0.2,0.016-0.483,0.033-0.851,0.05c-0.366,0.017-0.691,0.024-0.975,0.024
		C0.663,33.097,0.53,33.068,0.413,33.01z"/>
	<path fill="#005951" d="M15.201,32.648c-0.709-0.467-1.263-1.113-1.663-1.938c-0.399-0.825-0.6-1.763-0.6-2.812
		c0-1,0.237-1.926,0.713-2.775c0.475-0.85,1.112-1.525,1.912-2.025s1.675-0.75,2.625-0.75c1.05,0,1.925,0.317,2.625,0.95
		c0.7,0.634,1.05,1.434,1.05,2.4c0,0.3-0.062,0.524-0.188,0.675s-0.321,0.225-0.587,0.225h-5.075c-0.233,0-0.4,0.067-0.5,0.2
		c-0.101,0.134-0.15,0.358-0.15,0.675c0,0.7,0.15,1.334,0.45,1.9s0.713,1.017,1.237,1.35c0.525,0.334,1.112,0.5,1.763,0.5
		c0.866,0,1.7-0.357,2.5-1.074c0.133-0.134,0.241-0.2,0.325-0.2c0.066,0,0.125,0.029,0.175,0.087c0.05,0.059,0.075,0.13,0.075,0.213
		c0,0.217-0.101,0.5-0.3,0.85c-0.301,0.634-0.809,1.167-1.525,1.601c-0.717,0.433-1.533,0.649-2.45,0.649
		C16.714,33.347,15.909,33.114,15.201,32.648z M17.788,25.623c0.733,0,1.267-0.041,1.601-0.125c0.149-0.033,0.225-0.25,0.225-0.65
		c0-0.449-0.171-0.828-0.513-1.137s-0.762-0.463-1.262-0.463c-0.351,0-0.692,0.104-1.025,0.312c-0.334,0.209-0.604,0.475-0.812,0.8
		c-0.209,0.325-0.312,0.646-0.312,0.963c0,0.2,0.116,0.3,0.35,0.3H17.788z"/>
	<path fill="#005951" d="M31.126,33.335c-0.092-0.092-0.138-0.163-0.138-0.213c0.066-0.416,0.117-0.883,0.15-1.4v-0.149
		c-0.334,0.5-0.796,0.921-1.388,1.263c-0.592,0.341-1.229,0.512-1.912,0.512c-0.917,0-1.737-0.237-2.463-0.712
		c-0.725-0.476-1.292-1.108-1.7-1.9c-0.408-0.791-0.612-1.646-0.612-2.562c0-1.083,0.246-2.062,0.737-2.938
		c0.492-0.875,1.184-1.566,2.075-2.075c0.892-0.508,1.913-0.762,3.062-0.762c0.566,0,1.108,0.074,1.625,0.225l0.325,0.075
		c0.083,0,0.125-0.142,0.125-0.425v-3.15c0-0.6-0.079-1.029-0.237-1.287c-0.159-0.259-0.43-0.43-0.812-0.513
		c-0.184-0.05-0.275-0.175-0.275-0.375c0-0.184,0.083-0.3,0.25-0.351c1.217-0.283,2.3-0.633,3.25-1.05
		c0.25-0.116,0.417-0.175,0.5-0.175c0.167,0,0.25,0.084,0.25,0.25c0,0.017-0.021,0.213-0.062,0.588s-0.071,0.938-0.087,1.688
		l-0.075,12.175c0,0.583,0.041,0.996,0.125,1.237c0.083,0.242,0.225,0.362,0.425,0.362c0.25,0,0.592-0.024,1.025-0.075h0.125
		c0.083,0,0.146,0.018,0.188,0.051c0.041,0.033,0.062,0.1,0.062,0.199c0,0.134-0.047,0.263-0.138,0.388
		c-0.092,0.125-0.18,0.188-0.263,0.188c-1.233,0.167-2.4,0.467-3.5,0.9c-0.2,0.1-0.342,0.149-0.425,0.149
		C31.289,33.472,31.218,33.426,31.126,33.335z M30.063,31.535c0.384-0.158,0.7-0.379,0.95-0.662v-5.2
		c0-0.333-0.121-0.675-0.362-1.024c-0.242-0.351-0.555-0.638-0.938-0.863c-0.384-0.225-0.784-0.337-1.2-0.337
		c-0.417,0-0.816,0.154-1.2,0.462c-0.384,0.309-0.7,0.768-0.95,1.375c-0.25,0.609-0.375,1.354-0.375,2.238
		c0,0.949,0.154,1.746,0.463,2.387c0.309,0.643,0.695,1.113,1.162,1.413s0.926,0.45,1.375,0.45
		C29.322,31.773,29.68,31.694,30.063,31.535z"/>
	<path fill="#005951" d="M38.426,32.648c-0.709-0.467-1.263-1.113-1.663-1.938c-0.399-0.825-0.6-1.763-0.6-2.812
		c0-1,0.237-1.926,0.713-2.775c0.475-0.85,1.112-1.525,1.912-2.025s1.675-0.75,2.625-0.75c1.05,0,1.925,0.317,2.625,0.95
		c0.7,0.634,1.05,1.434,1.05,2.4c0,0.3-0.062,0.524-0.188,0.675s-0.321,0.225-0.587,0.225h-5.075c-0.233,0-0.4,0.067-0.5,0.2
		c-0.101,0.134-0.15,0.358-0.15,0.675c0,0.7,0.15,1.334,0.45,1.9s0.713,1.017,1.237,1.35c0.525,0.334,1.112,0.5,1.763,0.5
		c0.866,0,1.7-0.357,2.5-1.074c0.133-0.134,0.241-0.2,0.325-0.2c0.066,0,0.125,0.029,0.175,0.087c0.05,0.059,0.075,0.13,0.075,0.213
		c0,0.217-0.101,0.5-0.3,0.85c-0.301,0.634-0.809,1.167-1.525,1.601c-0.717,0.433-1.533,0.649-2.45,0.649
		C39.938,33.347,39.134,33.114,38.426,32.648z M41.013,25.623c0.733,0,1.267-0.041,1.601-0.125c0.149-0.033,0.225-0.25,0.225-0.65
		c0-0.449-0.171-0.828-0.513-1.137s-0.762-0.463-1.262-0.463c-0.351,0-0.692,0.104-1.025,0.312c-0.334,0.209-0.604,0.475-0.812,0.8
		c-0.209,0.325-0.312,0.646-0.312,0.963c0,0.2,0.116,0.3,0.35,0.3H41.013z"/>
	<path fill="#005951" d="M46.476,32.985c-0.092-0.058-0.138-0.138-0.138-0.237c0-0.133,0.046-0.233,0.138-0.3
		s0.237-0.125,0.438-0.175c0.351-0.101,0.596-0.221,0.737-0.363c0.142-0.141,0.213-0.337,0.213-0.587v-5.625
		c0-0.417-0.062-0.746-0.188-0.987c-0.125-0.242-0.346-0.404-0.662-0.488c-0.2-0.066-0.301-0.208-0.301-0.425
		c0-0.2,0.092-0.325,0.275-0.375c0.483-0.116,1.021-0.291,1.612-0.524s1.088-0.459,1.487-0.676c0.267-0.149,0.434-0.225,0.5-0.225
		c0.134,0,0.2,0.084,0.2,0.25l-0.075,1.95c0,0.033,0.009,0.066,0.025,0.1c0.017,0.034,0.033,0.05,0.05,0.05
		c0.434-0.566,0.925-1.045,1.476-1.438c0.55-0.391,1.091-0.587,1.625-0.587c0.466,0,0.824,0.096,1.074,0.287
		c0.25,0.192,0.375,0.446,0.375,0.763c0,0.35-0.137,0.725-0.412,1.125s-0.571,0.6-0.888,0.6c-0.184,0-0.475-0.1-0.875-0.3
		c-0.434-0.2-0.733-0.3-0.899-0.3c-0.484,0-0.875,0.171-1.176,0.513c-0.3,0.342-0.449,0.929-0.449,1.763v4.399
		c0,0.284,0.1,0.505,0.3,0.663s0.541,0.312,1.024,0.462c0.2,0.05,0.342,0.108,0.426,0.175c0.083,0.067,0.125,0.159,0.125,0.275
		c0,0.217-0.15,0.325-0.45,0.325c-0.517,0-1-0.025-1.45-0.075c-0.566-0.033-0.992-0.05-1.275-0.05c-0.25,0-0.642,0.017-1.175,0.05
		c-0.399,0.05-0.842,0.075-1.325,0.075C46.688,33.073,46.567,33.043,46.476,32.985z"/>
	<path fill="#005951" d="M56.112,32.985c-0.083-0.058-0.125-0.138-0.125-0.237c0-0.217,0.167-0.366,0.5-0.45
		c0.417-0.1,0.708-0.212,0.875-0.337s0.25-0.321,0.25-0.588v-5.425c0-0.533-0.083-0.934-0.25-1.2s-0.45-0.434-0.85-0.5
		c-0.084-0.017-0.15-0.062-0.2-0.138s-0.075-0.162-0.075-0.263c0-0.216,0.092-0.341,0.275-0.375c1.1-0.25,2.25-0.708,3.45-1.375
		c0.232-0.116,0.383-0.175,0.449-0.175c0.184,0,0.275,0.084,0.275,0.25l-0.075,0.851c-0.134,1.066-0.2,1.967-0.2,2.699v5.625
		c0,0.25,0.079,0.438,0.238,0.562c0.158,0.125,0.453,0.255,0.887,0.388c0.184,0.067,0.316,0.13,0.4,0.188
		c0.083,0.059,0.125,0.146,0.125,0.263c0,0.2-0.15,0.3-0.45,0.3c-0.316,0-0.774-0.017-1.375-0.05c-0.533-0.033-0.95-0.05-1.25-0.05
		c-0.267,0-0.667,0.017-1.2,0.05c-0.416,0.05-0.866,0.075-1.35,0.075C56.304,33.073,56.195,33.043,56.112,32.985z M57.713,19.972
		c-0.334-0.333-0.5-0.732-0.5-1.199c0-0.5,0.166-0.921,0.5-1.263c0.333-0.342,0.741-0.513,1.225-0.513c0.5,0,0.916,0.171,1.25,0.513
		c0.333,0.342,0.5,0.763,0.5,1.263c0,0.483-0.167,0.887-0.5,1.212c-0.334,0.325-0.75,0.487-1.25,0.487
		C58.454,20.472,58.046,20.306,57.713,19.972z"/>
	<path fill="#005951" d="M65.362,32.66c-0.7-0.458-1.255-1.083-1.663-1.875c-0.408-0.791-0.612-1.67-0.612-2.637
		c0-1.051,0.246-2.021,0.737-2.913c0.492-0.892,1.158-1.596,2-2.112s1.763-0.775,2.763-0.775c0.616,0,1.2,0.104,1.75,0.312
		c0.55,0.209,1.033,0.505,1.45,0.888c0.166,0.15,0.25,0.3,0.25,0.45c0,0.184-0.142,0.417-0.425,0.7
		c-0.284,0.283-0.525,0.425-0.726,0.425c-0.116,0-0.229-0.033-0.337-0.1s-0.237-0.167-0.388-0.301
		c-0.434-0.35-0.871-0.637-1.312-0.862c-0.441-0.225-0.821-0.337-1.138-0.337c-0.7,0-1.237,0.304-1.612,0.912
		s-0.562,1.504-0.562,2.688c0,1.217,0.312,2.191,0.938,2.925s1.454,1.101,2.487,1.101c0.483,0,0.904-0.075,1.263-0.226
		c0.358-0.149,0.746-0.408,1.162-0.774c0.017-0.017,0.062-0.055,0.138-0.113c0.075-0.058,0.154-0.087,0.237-0.087
		c0.184,0,0.275,0.125,0.275,0.375c0,0.2-0.084,0.441-0.25,0.725c-0.35,0.584-0.896,1.112-1.638,1.588
		c-0.741,0.475-1.554,0.712-2.438,0.712C66.846,33.347,66.062,33.119,65.362,32.66z"/>
	<path fill="#005951" d="M73.8,32.648c-0.476-0.467-0.713-0.983-0.713-1.551c0-0.55,0.158-1.004,0.476-1.362
		c0.316-0.358,0.824-0.688,1.524-0.987l2.325-1c0.333-0.133,0.537-0.254,0.612-0.362s0.112-0.329,0.112-0.663l0.051-1.475
		c0.016-0.467-0.084-0.842-0.301-1.125s-0.524-0.425-0.925-0.425c-0.217,0-0.441,0.042-0.675,0.125s-0.417,0.191-0.55,0.325
		c-0.117,0.1-0.175,0.291-0.175,0.574l0.024,0.625c0,0.167-0.254,0.371-0.763,0.613c-0.508,0.241-0.929,0.362-1.262,0.362
		c-0.117,0-0.209-0.042-0.275-0.125s-0.1-0.184-0.1-0.3c0-0.517,0.366-1.084,1.1-1.7c0.6-0.517,1.296-0.954,2.088-1.312
		c0.791-0.358,1.453-0.538,1.987-0.538c0.8,0,1.441,0.263,1.925,0.788c0.483,0.524,0.717,1.212,0.7,2.062l-0.125,5.35
		c-0.017,0.367,0.054,0.675,0.212,0.925s0.354,0.375,0.588,0.375c0.366,0,0.65-0.1,0.85-0.3c0.066-0.066,0.125-0.1,0.176-0.1
		c0.083,0,0.153,0.029,0.212,0.087c0.059,0.059,0.088,0.13,0.088,0.213c0,0.184-0.134,0.408-0.4,0.675
		c-0.283,0.3-0.6,0.529-0.95,0.688c-0.35,0.158-0.691,0.237-1.024,0.237c-0.45,0-0.847-0.112-1.188-0.337
		c-0.342-0.226-0.663-0.571-0.963-1.038h-0.075c-0.55,0.484-1.054,0.834-1.512,1.051c-0.459,0.216-0.946,0.324-1.463,0.324
		C74.812,33.347,74.274,33.114,73.8,32.648z M77.812,31.398c0.149-0.117,0.232-0.375,0.25-0.775l0.05-1.6v-0.101
		c0-0.216-0.075-0.325-0.226-0.325c-0.1,0-0.225,0.034-0.375,0.101c-0.633,0.267-1.079,0.537-1.337,0.812
		c-0.259,0.274-0.388,0.638-0.388,1.087c0,0.434,0.1,0.75,0.3,0.95s0.441,0.3,0.726,0.3C77.229,31.847,77.562,31.698,77.812,31.398z
		"/>
	<path fill="#005951" d="M89.136,33.023c-0.116-0.066-0.175-0.15-0.175-0.25c0-0.217,0.217-0.375,0.65-0.476
		c0.633-0.166,1.075-0.366,1.325-0.6s0.375-0.608,0.375-1.125V19.248c0-0.566-0.113-0.975-0.338-1.225s-0.638-0.426-1.237-0.525
		c-0.217-0.033-0.38-0.096-0.487-0.188c-0.109-0.092-0.163-0.195-0.163-0.312c0-0.116,0.054-0.204,0.163-0.263
		c0.107-0.058,0.254-0.087,0.438-0.087c0.699,0,1.291,0.024,1.774,0.074c0.533,0.034,0.983,0.051,1.351,0.051
		c0.216,0,0.453-0.009,0.712-0.025s0.454-0.033,0.588-0.05c0.583-0.083,1.25-0.125,2-0.125c2.033,0,3.537,0.287,4.513,0.862
		c0.975,0.575,1.462,1.529,1.462,2.862c0,0.5-0.104,0.976-0.312,1.425c-0.208,0.45-0.479,0.817-0.812,1.101
		c-0.267,0.25-0.533,0.45-0.8,0.6c-0.267,0.15-0.592,0.284-0.975,0.4c-0.067,0.033-0.101,0.079-0.101,0.138s0.033,0.096,0.101,0.112
		c1.116,0.267,2.037,0.691,2.762,1.274c0.726,0.584,1.088,1.518,1.088,2.801c0,0.85-0.138,1.55-0.412,2.1
		c-0.275,0.55-0.588,0.967-0.938,1.25c-0.351,0.283-0.775,0.55-1.275,0.8c-1.1,0.534-2.542,0.8-4.325,0.8
		c-0.267,0-0.717-0.017-1.35-0.05c-0.733-0.033-1.309-0.05-1.726-0.05c-0.399,0-0.967,0.017-1.699,0.05
		c-0.567,0.05-1.15,0.075-1.75,0.075C89.395,33.123,89.253,33.089,89.136,33.023z M98.011,23.073
		c0.217-0.184,0.421-0.463,0.613-0.838c0.191-0.375,0.287-0.87,0.287-1.487c0-2.133-0.975-3.2-2.925-3.2
		c-0.534,0-0.909,0.088-1.125,0.263c-0.217,0.175-0.325,0.454-0.325,0.838v4.225c0,0.316,0.108,0.546,0.325,0.688
		c0.216,0.142,0.458,0.213,0.725,0.213C96.52,23.773,97.327,23.54,98.011,23.073z M97.836,31.385c0.5-0.309,0.9-0.733,1.2-1.275
		c0.3-0.541,0.45-1.138,0.45-1.787c0-0.8-0.146-1.441-0.438-1.925c-0.292-0.483-0.63-0.842-1.013-1.075
		c-0.217-0.15-0.517-0.283-0.9-0.4c-0.383-0.116-0.833-0.175-1.35-0.175c-0.35,0-0.646,0.079-0.888,0.237
		c-0.241,0.159-0.362,0.354-0.362,0.588v4.625c0,1.1,0.559,1.649,1.675,1.649C96.794,31.847,97.336,31.694,97.836,31.385z"/>
	<path fill="#005951" d="M112.486,33.273l0.05-0.775c0.05-0.3,0.075-0.566,0.075-0.8l-0.025-0.226
		c-0.517,0.584-1.125,1.047-1.824,1.388c-0.7,0.342-1.426,0.513-2.176,0.513c-0.816,0-1.487-0.312-2.012-0.938
		c-0.525-0.625-0.788-1.429-0.788-2.412v-4.801c0-0.399-0.079-0.712-0.237-0.938c-0.158-0.225-0.421-0.387-0.787-0.487
		c-0.25-0.033-0.375-0.175-0.375-0.425c0-0.267,0.125-0.416,0.375-0.45c0.6-0.033,1.133-0.087,1.6-0.162s1.025-0.188,1.675-0.338
		c0.167-0.066,0.3-0.1,0.4-0.1c0.216,0,0.316,0.116,0.3,0.35c-0.117,0.717-0.175,1.358-0.175,1.925v4.825
		c0,0.601,0.166,1.101,0.5,1.5c0.333,0.4,0.741,0.608,1.225,0.625c0.733,0,1.3-0.183,1.7-0.55c0.166-0.133,0.325-0.342,0.475-0.625
		c0.15-0.283,0.226-0.625,0.226-1.025v-4.199c0-0.434-0.142-0.763-0.425-0.988c-0.284-0.225-0.625-0.346-1.025-0.362
		c-0.384-0.033-0.575-0.208-0.575-0.524c0-0.15,0.054-0.263,0.163-0.338c0.107-0.075,0.245-0.112,0.412-0.112
		c1.066-0.05,1.85-0.104,2.35-0.163c0.5-0.058,0.992-0.153,1.476-0.287l0.3-0.05c0.25,0,0.375,0.092,0.375,0.274
		c0,0.034-0.033,0.15-0.1,0.351c-0.034,0.184-0.071,0.467-0.113,0.85c-0.041,0.384-0.062,0.675-0.062,0.875v5.8
		c0,0.7,0.15,1.051,0.45,1.051l0.851-0.025c0.3,0,0.449,0.142,0.449,0.425c0,0.15-0.029,0.263-0.087,0.338
		c-0.059,0.075-0.163,0.121-0.312,0.138c-1.067,0.1-2.242,0.416-3.525,0.949c-0.267,0.101-0.467,0.15-0.6,0.15
		C112.553,33.498,112.486,33.422,112.486,33.273z"/>
	<path fill="#005951" d="M118.174,32.985c-0.092-0.058-0.138-0.138-0.138-0.237c0-0.133,0.046-0.233,0.138-0.3
		s0.237-0.125,0.438-0.175c0.351-0.101,0.596-0.221,0.737-0.363c0.142-0.141,0.213-0.337,0.213-0.587v-5.625
		c0-0.417-0.062-0.746-0.188-0.987c-0.125-0.242-0.346-0.404-0.662-0.488c-0.2-0.066-0.301-0.208-0.301-0.425
		c0-0.2,0.092-0.325,0.275-0.375c0.483-0.116,1.021-0.291,1.612-0.524s1.088-0.459,1.487-0.676c0.267-0.149,0.434-0.225,0.5-0.225
		c0.134,0,0.2,0.084,0.2,0.25l-0.075,1.95c0,0.033,0.009,0.066,0.025,0.1c0.017,0.034,0.033,0.05,0.05,0.05
		c0.434-0.566,0.925-1.045,1.476-1.438c0.55-0.391,1.091-0.587,1.625-0.587c0.466,0,0.824,0.096,1.074,0.287
		c0.25,0.192,0.375,0.446,0.375,0.763c0,0.35-0.137,0.725-0.412,1.125s-0.571,0.6-0.888,0.6c-0.184,0-0.475-0.1-0.875-0.3
		c-0.434-0.2-0.733-0.3-0.899-0.3c-0.484,0-0.875,0.171-1.176,0.513c-0.3,0.342-0.449,0.929-0.449,1.763v4.399
		c0,0.284,0.1,0.505,0.3,0.663s0.541,0.312,1.024,0.462c0.2,0.05,0.342,0.108,0.426,0.175c0.083,0.067,0.125,0.159,0.125,0.275
		c0,0.217-0.15,0.325-0.45,0.325c-0.517,0-1-0.025-1.45-0.075c-0.566-0.033-0.992-0.05-1.275-0.05c-0.25,0-0.642,0.017-1.175,0.05
		c-0.399,0.05-0.842,0.075-1.325,0.075C118.387,33.073,118.266,33.043,118.174,32.985z"/>
	<path fill="#005951" d="M127.886,32.898c-0.134-0.15-0.2-0.275-0.2-0.375c0-0.101,0.096-0.288,0.288-0.562
		c0.191-0.275,0.312-0.454,0.362-0.538l0.35-0.5l0.625-0.95c1.65-2.516,2.925-4.508,3.825-5.975c0.033-0.066,0.05-0.116,0.05-0.15
		c0-0.083-0.1-0.125-0.3-0.125l-1.75-0.024c-0.417-0.017-0.783,0.134-1.1,0.45c-0.167,0.199-0.5,0.649-1,1.35l-0.426,0.6
		c-0.066,0.067-0.158,0.101-0.274,0.101c-0.117,0-0.222-0.033-0.312-0.101c-0.092-0.066-0.13-0.149-0.112-0.25
		c0.366-1.466,0.55-2.475,0.55-3.024c0-0.15,0.054-0.283,0.162-0.4c0.108-0.116,0.221-0.175,0.338-0.175
		c0.133,0,0.283,0.084,0.45,0.25c0.133,0.1,0.516,0.15,1.149,0.15l1.025-0.025c1.733,0,3.416-0.025,5.05-0.075
		c0.15,0,0.267,0.097,0.35,0.288c0.084,0.191,0.084,0.337,0,0.438c-0.333,0.399-0.666,0.85-1,1.35l-4.399,6.9
		c-0.05,0.066-0.075,0.125-0.075,0.175c0,0.134,0.125,0.2,0.375,0.2h2.025c0.449,0,0.857-0.191,1.225-0.575
		c0.217-0.217,0.434-0.491,0.65-0.825c0.216-0.333,0.449-0.717,0.699-1.15c0.066-0.116,0.184-0.175,0.351-0.175
		c0.1,0,0.195,0.029,0.287,0.088s0.138,0.138,0.138,0.237c0,0.167-0.092,0.612-0.275,1.338c-0.184,0.725-0.358,1.362-0.524,1.912
		c-0.034,0.117-0.088,0.209-0.163,0.275c-0.074,0.066-0.171,0.1-0.287,0.1l-1.2-0.05c-0.316,0-0.912-0.017-1.787-0.05
		s-1.771-0.051-2.688-0.051c-0.317,0-0.759,0.033-1.325,0.101l-0.825,0.05C128.119,33.123,128.019,33.047,127.886,32.898z"/>
	<path fill="#005951" d="M138.235,32.985c-0.083-0.058-0.125-0.138-0.125-0.237c0-0.217,0.167-0.366,0.5-0.45
		c0.417-0.1,0.708-0.212,0.875-0.337s0.25-0.321,0.25-0.588v-5.425c0-0.533-0.083-0.934-0.25-1.2s-0.45-0.434-0.85-0.5
		c-0.084-0.017-0.15-0.062-0.2-0.138s-0.075-0.162-0.075-0.263c0-0.216,0.092-0.341,0.275-0.375c1.1-0.25,2.25-0.708,3.45-1.375
		c0.232-0.116,0.383-0.175,0.449-0.175c0.184,0,0.275,0.084,0.275,0.25l-0.075,0.851c-0.134,1.066-0.2,1.967-0.2,2.699v5.625
		c0,0.25,0.079,0.438,0.238,0.562c0.158,0.125,0.453,0.255,0.887,0.388c0.184,0.067,0.316,0.13,0.4,0.188
		c0.083,0.059,0.125,0.146,0.125,0.263c0,0.2-0.15,0.3-0.45,0.3c-0.316,0-0.774-0.017-1.375-0.05c-0.533-0.033-0.95-0.05-1.25-0.05
		c-0.267,0-0.667,0.017-1.2,0.05c-0.416,0.05-0.866,0.075-1.35,0.075C138.427,33.073,138.318,33.043,138.235,32.985z
		 M139.836,19.972c-0.334-0.333-0.5-0.732-0.5-1.199c0-0.5,0.166-0.921,0.5-1.263c0.333-0.342,0.741-0.513,1.225-0.513
		c0.5,0,0.916,0.171,1.25,0.513c0.333,0.342,0.5,0.763,0.5,1.263c0,0.483-0.167,0.887-0.5,1.212c-0.334,0.325-0.75,0.487-1.25,0.487
		C140.577,20.472,140.169,20.306,139.836,19.972z"/>
	<path fill="#005951" d="M147.785,32.685c-0.8-0.441-1.43-1.059-1.888-1.85c-0.458-0.792-0.688-1.68-0.688-2.663
		c0-1.017,0.254-1.975,0.763-2.875c0.508-0.899,1.204-1.62,2.088-2.162c0.883-0.542,1.85-0.812,2.899-0.812
		c0.983,0,1.888,0.237,2.713,0.712c0.825,0.476,1.479,1.109,1.962,1.9c0.483,0.792,0.726,1.646,0.726,2.562
		c0,1.066-0.226,2.046-0.675,2.938c-0.45,0.892-1.121,1.6-2.013,2.125s-1.972,0.787-3.237,0.787
		C149.469,33.347,148.585,33.126,147.785,32.685z M152.835,31.347c0.351-0.633,0.525-1.716,0.525-3.25
		c0-0.866-0.117-1.662-0.351-2.387c-0.233-0.726-0.562-1.305-0.987-1.738c-0.425-0.433-0.912-0.649-1.462-0.649
		c-0.667,0-1.192,0.225-1.575,0.675c-0.3,0.334-0.505,0.792-0.612,1.375c-0.109,0.584-0.163,1.316-0.163,2.2
		c0,0.816,0.121,1.592,0.362,2.325c0.242,0.733,0.571,1.329,0.988,1.787c0.416,0.459,0.875,0.688,1.375,0.688
		C151.818,32.373,152.451,32.031,152.835,31.347z"/>
	<path fill="#222222" d="M0,49.471c0-0.061,0.035-0.108,0.104-0.143c0.069-0.035,0.178-0.065,0.325-0.091
		c0.338-0.061,0.58-0.163,0.728-0.306c0.147-0.144,0.222-0.371,0.222-0.683v-5.486c0-0.416-0.055-0.724-0.163-0.923
		s-0.318-0.325-0.63-0.377c-0.286-0.052-0.43-0.139-0.43-0.26c0-0.096,0.126-0.144,0.377-0.144c0.373,0,0.615,0.005,0.729,0.014
		h0.546c0.13,0,0.281-0.005,0.455-0.014c0.173-0.008,0.303-0.017,0.39-0.025c0.226-0.026,0.425-0.039,0.598-0.039
		c0.997,0,1.795,0.206,2.393,0.617c0.598,0.412,0.896,0.978,0.896,1.696c0,0.546-0.105,1.042-0.318,1.488
		c-0.212,0.447-0.537,0.8-0.975,1.06c-0.438,0.261-0.978,0.391-1.618,0.391c-0.174,0-0.314-0.026-0.423-0.078S3.042,46.061,3.042,46
		c0-0.035,0.024-0.073,0.072-0.117c0.047-0.043,0.093-0.065,0.136-0.065c0.026,0,0.094,0.005,0.202,0.014s0.24,0.013,0.396,0.013
		c0.511,0,0.901-0.212,1.17-0.637S5.422,44.18,5.422,43.4c0-0.667-0.197-1.174-0.592-1.521s-0.921-0.521-1.58-0.521
		c-0.555,0-0.831,0.183-0.831,0.547v6.2c0,0.33,0.066,0.585,0.201,0.768c0.134,0.182,0.357,0.304,0.669,0.364
		c0.147,0.025,0.256,0.056,0.325,0.091c0.069,0.034,0.104,0.082,0.104,0.143c0,0.096-0.126,0.144-0.377,0.144
		c-0.277,0-0.529-0.018-0.754-0.053c-0.156-0.025-0.33-0.039-0.521-0.039c-0.156,0-0.314,0.007-0.475,0.02
		c-0.16,0.014-0.275,0.02-0.345,0.02c-0.347,0.035-0.637,0.053-0.87,0.053C0.126,49.615,0,49.567,0,49.471z"/>
	<path fill="#222222" d="M9.542,49.608c-0.234-0.082-0.434-0.197-0.599-0.345c-0.069-0.139-0.116-0.485-0.143-1.04
		c0-0.078,0.057-0.117,0.169-0.117c0.096,0,0.147,0.031,0.156,0.092c0.104,0.398,0.274,0.695,0.514,0.89
		c0.238,0.195,0.496,0.293,0.773,0.293c0.251,0,0.466-0.085,0.644-0.254c0.177-0.169,0.267-0.379,0.267-0.63
		c0-0.226-0.076-0.423-0.228-0.592c-0.152-0.169-0.428-0.379-0.826-0.631c-0.45-0.277-0.769-0.534-0.955-0.773
		c-0.187-0.238-0.279-0.518-0.279-0.838c0-0.434,0.151-0.791,0.455-1.073c0.303-0.281,0.736-0.422,1.3-0.422
		c0.242,0,0.452,0.023,0.63,0.071s0.314,0.106,0.41,0.176c0.069,0.096,0.128,0.245,0.175,0.448c0.048,0.204,0.072,0.396,0.072,0.578
		c0,0.062-0.044,0.092-0.13,0.092c-0.053,0-0.104-0.011-0.156-0.033c-0.052-0.021-0.083-0.05-0.091-0.084
		c-0.122-0.295-0.267-0.516-0.436-0.663s-0.375-0.221-0.618-0.221c-0.226,0-0.42,0.069-0.585,0.208
		c-0.164,0.139-0.247,0.324-0.247,0.559c0,0.208,0.063,0.388,0.188,0.539c0.126,0.152,0.362,0.328,0.709,0.527
		c0.546,0.312,0.932,0.591,1.157,0.838c0.225,0.247,0.338,0.562,0.338,0.942c0,0.469-0.178,0.85-0.533,1.145
		c-0.355,0.294-0.814,0.441-1.378,0.441C10.027,49.731,9.775,49.69,9.542,49.608z"/>
	<path fill="#222222" d="M14.495,49.446c0-0.061,0.024-0.104,0.072-0.131c0.047-0.025,0.123-0.052,0.228-0.077
		c0.199-0.053,0.342-0.111,0.429-0.176c0.087-0.065,0.13-0.171,0.13-0.318v-2.821c0-0.572-0.195-0.889-0.585-0.949
		c-0.087-0.009-0.13-0.064-0.13-0.169c0-0.095,0.039-0.147,0.117-0.156c0.528-0.121,0.983-0.338,1.364-0.649
		c0.078-0.061,0.139-0.091,0.183-0.091c0.052,0,0.078,0.021,0.078,0.064c0,0.096-0.014,0.26-0.039,0.494
		c-0.009,0.104-0.024,0.297-0.046,0.578c-0.021,0.282-0.032,0.51-0.032,0.683v3.017c0,0.139,0.046,0.242,0.137,0.312
		s0.231,0.13,0.422,0.183c0.104,0.025,0.18,0.052,0.228,0.077c0.048,0.026,0.072,0.07,0.072,0.131c0,0.095-0.087,0.143-0.261,0.143
		c-0.217,0-0.398-0.013-0.546-0.039c-0.19-0.018-0.359-0.026-0.507-0.026c-0.139,0-0.304,0.009-0.494,0.026
		c-0.139,0.026-0.325,0.039-0.559,0.039C14.582,49.588,14.495,49.541,14.495,49.446z M15.334,42.653
		c-0.126-0.126-0.188-0.279-0.188-0.462c0-0.19,0.062-0.349,0.188-0.474c0.126-0.126,0.279-0.189,0.462-0.189
		c0.19,0,0.349,0.063,0.475,0.189c0.125,0.125,0.188,0.283,0.188,0.474c0,0.183-0.063,0.336-0.188,0.462
		c-0.126,0.126-0.284,0.188-0.475,0.188C15.613,42.841,15.46,42.779,15.334,42.653z"/>
	<path fill="#222222" d="M20.521,49.413c-0.352-0.221-0.629-0.524-0.832-0.91c-0.204-0.385-0.306-0.816-0.306-1.293
		c0-0.555,0.123-1.063,0.37-1.527s0.579-0.832,0.995-1.105c0.416-0.272,0.875-0.409,1.378-0.409c0.563,0,1.057,0.151,1.481,0.455
		c0.104,0.078,0.156,0.16,0.156,0.247c0,0.112-0.064,0.229-0.195,0.351c-0.13,0.121-0.251,0.182-0.363,0.182
		c-0.044,0-0.087-0.015-0.13-0.045c-0.044-0.03-0.092-0.062-0.144-0.098c-0.217-0.164-0.438-0.308-0.663-0.429
		s-0.411-0.183-0.559-0.183c-0.425,0-0.77,0.2-1.034,0.599c-0.264,0.398-0.396,0.914-0.396,1.547c0,0.398,0.087,0.765,0.261,1.099
		c0.173,0.333,0.411,0.596,0.715,0.786c0.303,0.19,0.637,0.286,1.001,0.286c0.251,0,0.468-0.041,0.649-0.124
		c0.183-0.082,0.378-0.227,0.586-0.435c0.043-0.044,0.086-0.065,0.13-0.065c0.043,0,0.078,0.018,0.104,0.052
		c0.026,0.035,0.039,0.078,0.039,0.13c0,0.096-0.064,0.23-0.195,0.403c-0.208,0.269-0.472,0.473-0.793,0.611
		c-0.32,0.139-0.68,0.208-1.079,0.208C21.264,49.745,20.871,49.634,20.521,49.413z"/>
	<path fill="#222222" d="M27.255,49.393c-0.395-0.225-0.706-0.537-0.936-0.936c-0.23-0.398-0.345-0.845-0.345-1.339
		c0-0.477,0.128-0.945,0.384-1.404c0.255-0.459,0.602-0.832,1.04-1.118c0.438-0.286,0.912-0.429,1.423-0.429
		c0.494,0,0.944,0.119,1.353,0.357c0.407,0.238,0.729,0.559,0.968,0.962s0.358,0.834,0.358,1.294c0,0.52-0.113,1.005-0.339,1.455
		c-0.225,0.451-0.559,0.812-1.001,1.086c-0.441,0.273-0.975,0.409-1.599,0.409C28.085,49.731,27.649,49.619,27.255,49.393z
		 M30.174,48.626c0.173-0.338,0.26-0.85,0.26-1.534c0-0.416-0.078-0.819-0.234-1.209c-0.155-0.39-0.372-0.706-0.649-0.949
		c-0.277-0.242-0.594-0.363-0.949-0.363c-0.252,0-0.468,0.038-0.65,0.116c-0.182,0.078-0.347,0.213-0.494,0.403
		c-0.155,0.199-0.264,0.444-0.324,0.734c-0.062,0.291-0.091,0.622-0.091,0.994c0,0.434,0.077,0.844,0.233,1.229
		c0.156,0.386,0.371,0.698,0.644,0.937c0.273,0.238,0.578,0.357,0.917,0.357C29.484,49.341,29.931,49.103,30.174,48.626z"/>
	<path fill="#222222" d="M33.566,49.471c0-0.061,0.023-0.105,0.071-0.137c0.048-0.03,0.124-0.062,0.228-0.097
		c0.19-0.061,0.332-0.119,0.423-0.176s0.137-0.163,0.137-0.318v-6.553c0-0.546-0.2-0.862-0.599-0.948
		c-0.034-0.009-0.061-0.028-0.078-0.059s-0.025-0.067-0.025-0.11c0-0.087,0.03-0.139,0.091-0.156
		c0.338-0.078,0.724-0.208,1.157-0.391l0.312-0.116c0.034-0.018,0.061-0.026,0.078-0.026s0.032,0.011,0.046,0.032
		c0.013,0.022,0.02,0.042,0.02,0.059c0,0.052-0.016,0.217-0.046,0.494s-0.046,0.702-0.046,1.274v6.5
		c0,0.155,0.046,0.262,0.137,0.318s0.231,0.115,0.423,0.176c0.104,0.034,0.18,0.066,0.228,0.097
		c0.047,0.031,0.071,0.076,0.071,0.137c0,0.078-0.087,0.117-0.26,0.117c-0.226,0-0.412-0.013-0.56-0.039
		c-0.19-0.018-0.355-0.026-0.494-0.026s-0.303,0.009-0.493,0.026c-0.139,0.026-0.325,0.039-0.56,0.039
		C33.653,49.588,33.566,49.549,33.566,49.471z"/>
	<path fill="#222222" d="M39.734,49.393c-0.395-0.225-0.706-0.537-0.936-0.936c-0.23-0.398-0.345-0.845-0.345-1.339
		c0-0.477,0.128-0.945,0.384-1.404c0.255-0.459,0.602-0.832,1.04-1.118c0.438-0.286,0.912-0.429,1.423-0.429
		c0.494,0,0.944,0.119,1.353,0.357c0.407,0.238,0.729,0.559,0.968,0.962s0.358,0.834,0.358,1.294c0,0.52-0.113,1.005-0.339,1.455
		c-0.225,0.451-0.559,0.812-1.001,1.086c-0.441,0.273-0.975,0.409-1.599,0.409C40.564,49.731,40.129,49.619,39.734,49.393z
		 M42.653,48.626c0.173-0.338,0.26-0.85,0.26-1.534c0-0.416-0.078-0.819-0.234-1.209c-0.155-0.39-0.372-0.706-0.649-0.949
		c-0.277-0.242-0.594-0.363-0.949-0.363c-0.252,0-0.468,0.038-0.65,0.116c-0.182,0.078-0.347,0.213-0.494,0.403
		c-0.155,0.199-0.264,0.444-0.324,0.734c-0.062,0.291-0.091,0.622-0.091,0.994c0,0.434,0.077,0.844,0.233,1.229
		c0.156,0.386,0.371,0.698,0.644,0.937c0.273,0.238,0.578,0.357,0.917,0.357C41.964,49.341,42.41,49.103,42.653,48.626z"/>
	<path fill="#222222" d="M51.675,44.557c0.035,0.035,0.053,0.083,0.053,0.144c0,0.077-0.044,0.16-0.131,0.247
		c-0.043,0.043-0.077,0.064-0.104,0.064h-0.351c-0.234,0-0.364,0.035-0.391,0.104c-0.052,0.155-0.078,0.355-0.078,0.598
		c0,0.434-0.095,0.839-0.286,1.216c-0.19,0.377-0.443,0.678-0.76,0.903s-0.657,0.338-1.021,0.338c-0.252,0-0.481-0.043-0.689-0.13
		c-0.156,0.078-0.286,0.169-0.39,0.272c-0.104,0.104-0.156,0.195-0.156,0.273c0,0.364,0.563,0.581,1.69,0.65
		c0.797,0.043,1.391,0.173,1.78,0.39c0.391,0.217,0.585,0.524,0.585,0.923c0,0.434-0.143,0.866-0.429,1.3s-0.654,0.787-1.104,1.06
		c-0.451,0.273-0.906,0.409-1.365,0.409c-0.737,0-1.319-0.139-1.749-0.416c-0.429-0.277-0.644-0.658-0.644-1.144
		c0-0.226,0.035-0.414,0.104-0.565s0.178-0.288,0.325-0.409l0.52-0.416l0.572-0.455c-0.407-0.078-0.7-0.191-0.878-0.338
		c-0.178-0.147-0.267-0.347-0.267-0.599c0-0.155,0.1-0.316,0.3-0.48c0.208-0.156,0.368-0.279,0.48-0.371
		c0.112-0.091,0.195-0.175,0.247-0.253c-0.312-0.183-0.563-0.423-0.754-0.722s-0.286-0.617-0.286-0.955
		c0-0.391,0.104-0.741,0.312-1.054c0.208-0.312,0.485-0.557,0.832-0.734c0.346-0.178,0.719-0.267,1.117-0.267
		c0.261,0,0.572,0.061,0.937,0.183c0.061,0.025,0.151,0.056,0.272,0.091c0.191,0.052,0.347,0.087,0.469,0.104
		c0.121,0.018,0.255,0.026,0.402,0.026c0.096,0,0.238-0.009,0.43-0.026l0.286-0.013C51.602,44.505,51.641,44.523,51.675,44.557z
		 M50.18,50.316c-0.303-0.147-0.802-0.242-1.494-0.285c-0.252-0.018-0.438-0.035-0.56-0.053c-0.373,0.252-0.635,0.496-0.786,0.734
		c-0.152,0.238-0.228,0.522-0.228,0.852c0,0.347,0.153,0.64,0.461,0.878s0.688,0.357,1.138,0.357c0.512,0,0.923-0.117,1.235-0.351
		c0.217-0.165,0.386-0.38,0.507-0.644c0.121-0.265,0.182-0.544,0.182-0.839C50.635,50.68,50.483,50.463,50.18,50.316z
		 M49.498,47.215c0.221-0.333,0.331-0.747,0.331-1.241c0-0.242-0.059-0.477-0.176-0.702c-0.116-0.225-0.271-0.404-0.461-0.539
		c-0.191-0.135-0.391-0.201-0.599-0.201c-0.199,0-0.388,0.069-0.565,0.208s-0.32,0.324-0.429,0.559s-0.162,0.481-0.162,0.741
		c0,0.295,0.056,0.571,0.169,0.832c0.112,0.26,0.264,0.466,0.455,0.617c0.19,0.151,0.398,0.228,0.624,0.228
		C49.006,47.716,49.276,47.549,49.498,47.215z"/>
	<path fill="#222222" d="M54.262,49.556c-0.164-0.117-0.301-0.265-0.409-0.442s-0.162-0.345-0.162-0.5
		c0-0.269,0.071-0.481,0.214-0.638c0.144-0.155,0.379-0.303,0.709-0.441l1.326-0.546c0.164-0.069,0.264-0.131,0.299-0.183
		c0.034-0.052,0.056-0.164,0.064-0.338l0.026-0.832c0.009-0.234-0.057-0.431-0.195-0.592c-0.139-0.16-0.329-0.24-0.572-0.24
		c-0.13,0-0.26,0.021-0.39,0.065c-0.13,0.043-0.238,0.1-0.325,0.169c-0.087,0.061-0.13,0.187-0.13,0.377l0.014,0.233
		c0,0.07-0.111,0.163-0.332,0.28c-0.221,0.116-0.396,0.175-0.526,0.175c-0.044,0-0.078-0.011-0.104-0.032
		c-0.025-0.021-0.039-0.05-0.039-0.084c0-0.139,0.046-0.288,0.137-0.449c0.091-0.16,0.219-0.31,0.384-0.448
		c0.295-0.269,0.626-0.489,0.994-0.663c0.368-0.173,0.683-0.26,0.942-0.26c0.312,0,0.57,0.11,0.774,0.331
		c0.203,0.222,0.301,0.496,0.292,0.826l-0.065,3.119c-0.008,0.183,0.03,0.33,0.117,0.442c0.087,0.113,0.204,0.169,0.352,0.169
		c0.216,0,0.377-0.048,0.48-0.143c0.044-0.044,0.078-0.065,0.104-0.065c0.043,0,0.078,0.013,0.104,0.039
		c0.026,0.026,0.039,0.061,0.039,0.104c0,0.034-0.013,0.08-0.039,0.136c-0.025,0.057-0.061,0.106-0.104,0.149
		c-0.139,0.14-0.288,0.25-0.449,0.332c-0.16,0.082-0.31,0.123-0.448,0.123c-0.398,0-0.715-0.225-0.949-0.676h-0.038
		c-0.286,0.234-0.56,0.405-0.819,0.514s-0.529,0.162-0.806,0.162C54.582,49.731,54.427,49.672,54.262,49.556z M56.108,48.795
		c0.052-0.052,0.091-0.117,0.116-0.195c0.026-0.078,0.044-0.19,0.053-0.338l0.025-0.637v-0.078c0-0.069-0.009-0.119-0.025-0.149
		c-0.018-0.03-0.048-0.046-0.092-0.046c-0.052,0-0.139,0.022-0.26,0.065c-0.434,0.156-0.745,0.32-0.936,0.494
		c-0.191,0.173-0.286,0.342-0.286,0.507c0,0.217,0.062,0.386,0.188,0.507c0.125,0.121,0.275,0.182,0.448,0.182
		C55.645,49.107,55.9,49.003,56.108,48.795z"/>
	<path fill="#222222" d="M64.428,49.471c0-0.061,0.035-0.108,0.104-0.143c0.069-0.035,0.178-0.065,0.325-0.091
		c0.338-0.061,0.58-0.163,0.728-0.306c0.147-0.144,0.222-0.371,0.222-0.683v-5.486c0-0.416-0.055-0.724-0.163-0.923
		s-0.318-0.325-0.63-0.377c-0.286-0.052-0.43-0.139-0.43-0.26c0-0.096,0.126-0.144,0.377-0.144c0.373,0,0.615,0.005,0.729,0.014
		h0.546c0.13,0,0.281-0.005,0.455-0.014c0.173-0.008,0.303-0.017,0.39-0.025c0.226-0.026,0.425-0.039,0.598-0.039
		c0.997,0,1.795,0.206,2.393,0.617c0.598,0.412,0.896,0.978,0.896,1.696c0,0.546-0.105,1.042-0.318,1.488
		c-0.212,0.447-0.537,0.8-0.975,1.06c-0.438,0.261-0.978,0.391-1.618,0.391c-0.174,0-0.314-0.026-0.423-0.078S67.47,46.061,67.47,46
		c0-0.035,0.024-0.073,0.072-0.117c0.047-0.043,0.093-0.065,0.136-0.065c0.026,0,0.094,0.005,0.202,0.014s0.24,0.013,0.396,0.013
		c0.511,0,0.901-0.212,1.17-0.637S69.85,44.18,69.85,43.4c0-0.667-0.197-1.174-0.592-1.521s-0.921-0.521-1.58-0.521
		c-0.555,0-0.831,0.183-0.831,0.547v6.2c0,0.33,0.066,0.585,0.201,0.768c0.134,0.182,0.357,0.304,0.669,0.364
		c0.147,0.025,0.256,0.056,0.325,0.091c0.069,0.034,0.104,0.082,0.104,0.143c0,0.096-0.126,0.144-0.377,0.144
		c-0.277,0-0.529-0.018-0.754-0.053c-0.156-0.025-0.33-0.039-0.521-0.039c-0.156,0-0.314,0.007-0.475,0.02
		c-0.16,0.014-0.275,0.02-0.345,0.02c-0.347,0.035-0.637,0.053-0.87,0.053C64.554,49.615,64.428,49.567,64.428,49.471z"/>
	<path fill="#222222" d="M73.97,49.608c-0.234-0.082-0.434-0.197-0.599-0.345c-0.069-0.139-0.116-0.485-0.143-1.04
		c0-0.078,0.057-0.117,0.169-0.117c0.096,0,0.147,0.031,0.156,0.092c0.104,0.398,0.274,0.695,0.514,0.89
		c0.238,0.195,0.496,0.293,0.773,0.293c0.251,0,0.466-0.085,0.644-0.254c0.177-0.169,0.267-0.379,0.267-0.63
		c0-0.226-0.076-0.423-0.228-0.592c-0.152-0.169-0.428-0.379-0.826-0.631c-0.45-0.277-0.769-0.534-0.955-0.773
		c-0.187-0.238-0.279-0.518-0.279-0.838c0-0.434,0.151-0.791,0.455-1.073c0.303-0.281,0.736-0.422,1.3-0.422
		c0.242,0,0.452,0.023,0.63,0.071s0.314,0.106,0.41,0.176c0.069,0.096,0.128,0.245,0.175,0.448c0.048,0.204,0.072,0.396,0.072,0.578
		c0,0.062-0.044,0.092-0.13,0.092c-0.053,0-0.104-0.011-0.156-0.033c-0.052-0.021-0.083-0.05-0.091-0.084
		c-0.122-0.295-0.267-0.516-0.436-0.663s-0.375-0.221-0.618-0.221c-0.226,0-0.42,0.069-0.585,0.208
		c-0.164,0.139-0.247,0.324-0.247,0.559c0,0.208,0.063,0.388,0.188,0.539c0.126,0.152,0.362,0.328,0.709,0.527
		c0.546,0.312,0.932,0.591,1.157,0.838c0.225,0.247,0.338,0.562,0.338,0.942c0,0.469-0.178,0.85-0.533,1.145
		c-0.355,0.294-0.814,0.441-1.378,0.441C74.455,49.731,74.203,49.69,73.97,49.608z"/>
	<path fill="#222222" d="M78.922,49.446c0-0.061,0.024-0.104,0.072-0.131c0.047-0.025,0.123-0.052,0.228-0.077
		c0.199-0.053,0.342-0.111,0.429-0.176c0.087-0.065,0.13-0.171,0.13-0.318v-2.821c0-0.572-0.195-0.889-0.585-0.949
		c-0.087-0.009-0.13-0.064-0.13-0.169c0-0.095,0.039-0.147,0.117-0.156c0.528-0.121,0.983-0.338,1.364-0.649
		c0.078-0.061,0.139-0.091,0.183-0.091c0.052,0,0.078,0.021,0.078,0.064c0,0.096-0.014,0.26-0.039,0.494
		c-0.009,0.104-0.024,0.297-0.046,0.578c-0.021,0.282-0.032,0.51-0.032,0.683v3.017c0,0.139,0.046,0.242,0.137,0.312
		s0.231,0.13,0.422,0.183c0.104,0.025,0.18,0.052,0.228,0.077c0.048,0.026,0.072,0.07,0.072,0.131c0,0.095-0.087,0.143-0.261,0.143
		c-0.217,0-0.398-0.013-0.546-0.039c-0.19-0.018-0.359-0.026-0.507-0.026c-0.139,0-0.304,0.009-0.494,0.026
		c-0.139,0.026-0.325,0.039-0.559,0.039C79.009,49.588,78.922,49.541,78.922,49.446z M79.761,42.653
		c-0.126-0.126-0.188-0.279-0.188-0.462c0-0.19,0.062-0.349,0.188-0.474c0.126-0.126,0.279-0.189,0.462-0.189
		c0.19,0,0.349,0.063,0.475,0.189c0.125,0.125,0.188,0.283,0.188,0.474c0,0.183-0.063,0.336-0.188,0.462
		c-0.126,0.126-0.284,0.188-0.475,0.188C80.04,42.841,79.887,42.779,79.761,42.653z"/>
	<path fill="#222222" d="M84.948,49.413c-0.352-0.221-0.629-0.524-0.832-0.91c-0.204-0.385-0.306-0.816-0.306-1.293
		c0-0.555,0.123-1.063,0.37-1.527s0.579-0.832,0.995-1.105c0.416-0.272,0.875-0.409,1.378-0.409c0.563,0,1.057,0.151,1.481,0.455
		c0.104,0.078,0.156,0.16,0.156,0.247c0,0.112-0.064,0.229-0.195,0.351c-0.13,0.121-0.251,0.182-0.363,0.182
		c-0.044,0-0.087-0.015-0.13-0.045c-0.044-0.03-0.092-0.062-0.144-0.098c-0.217-0.164-0.438-0.308-0.663-0.429
		s-0.411-0.183-0.559-0.183c-0.425,0-0.77,0.2-1.034,0.599c-0.264,0.398-0.396,0.914-0.396,1.547c0,0.398,0.087,0.765,0.261,1.099
		c0.173,0.333,0.411,0.596,0.715,0.786c0.303,0.19,0.637,0.286,1.001,0.286c0.251,0,0.468-0.041,0.649-0.124
		c0.183-0.082,0.378-0.227,0.586-0.435c0.043-0.044,0.086-0.065,0.13-0.065c0.043,0,0.078,0.018,0.104,0.052
		c0.026,0.035,0.039,0.078,0.039,0.13c0,0.096-0.064,0.23-0.195,0.403c-0.208,0.269-0.472,0.473-0.793,0.611
		c-0.32,0.139-0.68,0.208-1.079,0.208C85.691,49.745,85.299,49.634,84.948,49.413z"/>
	<path fill="#222222" d="M91.682,49.393c-0.395-0.225-0.706-0.537-0.936-0.936c-0.23-0.398-0.345-0.845-0.345-1.339
		c0-0.477,0.128-0.945,0.384-1.404c0.255-0.459,0.602-0.832,1.04-1.118c0.438-0.286,0.912-0.429,1.423-0.429
		c0.494,0,0.944,0.119,1.353,0.357c0.407,0.238,0.729,0.559,0.968,0.962s0.358,0.834,0.358,1.294c0,0.52-0.113,1.005-0.339,1.455
		c-0.225,0.451-0.559,0.812-1.001,1.086c-0.441,0.273-0.975,0.409-1.599,0.409C92.512,49.731,92.076,49.619,91.682,49.393z
		 M94.601,48.626c0.173-0.338,0.26-0.85,0.26-1.534c0-0.416-0.078-0.819-0.234-1.209c-0.155-0.39-0.372-0.706-0.649-0.949
		c-0.277-0.242-0.594-0.363-0.949-0.363c-0.252,0-0.468,0.038-0.65,0.116c-0.182,0.078-0.347,0.213-0.494,0.403
		c-0.155,0.199-0.264,0.444-0.324,0.734c-0.062,0.291-0.091,0.622-0.091,0.994c0,0.434,0.077,0.844,0.233,1.229
		c0.156,0.386,0.371,0.698,0.644,0.937c0.273,0.238,0.578,0.357,0.917,0.357C93.911,49.341,94.357,49.103,94.601,48.626z"/>
	<path fill="#222222" d="M99.397,49.334c-0.234-0.264-0.351-0.647-0.351-1.15v-3.016c0-0.078-0.028-0.13-0.085-0.156
		s-0.167-0.039-0.331-0.039h-0.078c-0.044,0-0.08-0.025-0.11-0.078c-0.031-0.052-0.046-0.112-0.046-0.182
		c0-0.018,0.011-0.041,0.032-0.071s0.041-0.055,0.059-0.071c0.468-0.33,0.854-0.677,1.157-1.04c0.034-0.044,0.069-0.08,0.104-0.111
		c0.035-0.03,0.074-0.045,0.117-0.045c0.121,0,0.178,0.048,0.169,0.143l-0.064,0.585v0.053c0,0.077,0.025,0.13,0.078,0.155
		c0.052,0.026,0.13,0.039,0.233,0.039h1.482c0.034,0,0.064,0.028,0.091,0.085s0.039,0.123,0.039,0.201s-0.013,0.154-0.039,0.228
		c-0.026,0.074-0.057,0.11-0.091,0.11h-1.287c-0.234,0-0.379,0.018-0.436,0.052c-0.057,0.035-0.085,0.139-0.085,0.312v2.561
		c0,0.355,0.074,0.631,0.222,0.826c0.146,0.194,0.359,0.292,0.637,0.292c0.242,0,0.436-0.017,0.578-0.052
		c0.144-0.034,0.271-0.096,0.384-0.182l0.052-0.026c0.061,0,0.091,0.061,0.091,0.182c0,0.053-0.077,0.146-0.233,0.28
		c-0.156,0.134-0.349,0.253-0.579,0.357c-0.229,0.104-0.466,0.155-0.708,0.155C99.965,49.731,99.632,49.599,99.397,49.334z"/>
	<path fill="#222222" d="M105.111,49.393c-0.359-0.233-0.639-0.565-0.838-0.994c-0.2-0.429-0.3-0.925-0.3-1.488
		c0-0.485,0.115-0.94,0.345-1.365s0.535-0.761,0.917-1.008c0.381-0.247,0.797-0.37,1.248-0.37c0.52,0,0.946,0.153,1.28,0.461
		c0.333,0.309,0.5,0.7,0.5,1.177c0,0.269-0.13,0.403-0.39,0.403h-2.743c-0.121,0-0.206,0.032-0.253,0.098
		c-0.048,0.064-0.072,0.192-0.072,0.383c0,0.408,0.089,0.785,0.267,1.132s0.421,0.621,0.729,0.825
		c0.308,0.203,0.644,0.306,1.007,0.306c0.512,0,0.937-0.195,1.274-0.585c0.052-0.069,0.1-0.104,0.143-0.104
		c0.069,0,0.104,0.044,0.104,0.13c0,0.165-0.078,0.347-0.234,0.546c-0.19,0.252-0.441,0.449-0.754,0.592
		c-0.312,0.143-0.642,0.215-0.988,0.215C105.885,49.745,105.471,49.627,105.111,49.393z M106.34,45.805
		c0.407,0,0.729-0.021,0.962-0.064c0.069-0.009,0.104-0.104,0.104-0.286c0-0.252-0.11-0.466-0.332-0.644
		c-0.221-0.178-0.483-0.267-0.786-0.267c-0.19,0-0.388,0.059-0.592,0.176c-0.203,0.116-0.37,0.262-0.5,0.436
		c-0.13,0.173-0.195,0.347-0.195,0.52c0,0.087,0.052,0.13,0.156,0.13H106.34z"/>
	<path fill="#222222" d="M110.591,49.446c0-0.061,0.021-0.103,0.065-0.124c0.043-0.021,0.121-0.05,0.233-0.084
		c0.329-0.078,0.494-0.243,0.494-0.494v-2.795c0-0.261-0.039-0.471-0.117-0.631s-0.217-0.262-0.416-0.306
		c-0.034-0.009-0.064-0.03-0.091-0.064c-0.026-0.035-0.039-0.069-0.039-0.104c0-0.034,0.013-0.067,0.039-0.098
		s0.052-0.05,0.078-0.059c0.347-0.112,0.775-0.324,1.287-0.637c0.095-0.061,0.16-0.091,0.195-0.091c0.043,0,0.064,0.03,0.064,0.091
		c0,0.234-0.013,0.559-0.039,0.975c0,0.018,0.009,0.026,0.026,0.026c0.217-0.26,0.459-0.473,0.728-0.637
		c0.269-0.165,0.524-0.247,0.768-0.247c0.182,0,0.331,0.039,0.448,0.117s0.176,0.178,0.176,0.299c0,0.139-0.055,0.286-0.163,0.441
		c-0.108,0.156-0.223,0.234-0.345,0.234c-0.086,0-0.208-0.039-0.363-0.117c-0.026-0.009-0.085-0.03-0.176-0.064
		c-0.091-0.035-0.171-0.053-0.24-0.053c-0.252,0-0.464,0.083-0.638,0.247c-0.173,0.165-0.26,0.447-0.26,0.846v2.626
		c0,0.112,0.057,0.206,0.169,0.279c0.113,0.073,0.286,0.146,0.521,0.215c0.104,0.034,0.18,0.064,0.228,0.091
		c0.047,0.025,0.071,0.064,0.071,0.117c0,0.095-0.087,0.143-0.26,0.143c-0.234,0-0.438-0.013-0.611-0.039
		c-0.208-0.018-0.382-0.026-0.52-0.026c-0.14,0-0.304,0.009-0.494,0.026c-0.139,0.026-0.325,0.039-0.56,0.039
		C110.678,49.588,110.591,49.541,110.591,49.446z"/>
	<path fill="#222222" d="M117.168,49.556c-0.164-0.117-0.301-0.265-0.409-0.442s-0.162-0.345-0.162-0.5
		c0-0.269,0.071-0.481,0.214-0.638c0.144-0.155,0.379-0.303,0.709-0.441l1.326-0.546c0.164-0.069,0.264-0.131,0.299-0.183
		c0.034-0.052,0.056-0.164,0.064-0.338l0.026-0.832c0.009-0.234-0.057-0.431-0.195-0.592c-0.139-0.16-0.329-0.24-0.572-0.24
		c-0.13,0-0.26,0.021-0.39,0.065c-0.13,0.043-0.238,0.1-0.325,0.169c-0.087,0.061-0.13,0.187-0.13,0.377l0.014,0.233
		c0,0.07-0.111,0.163-0.332,0.28c-0.221,0.116-0.396,0.175-0.526,0.175c-0.044,0-0.078-0.011-0.104-0.032
		c-0.025-0.021-0.039-0.05-0.039-0.084c0-0.139,0.046-0.288,0.137-0.449c0.091-0.16,0.219-0.31,0.384-0.448
		c0.295-0.269,0.626-0.489,0.994-0.663c0.368-0.173,0.683-0.26,0.942-0.26c0.312,0,0.57,0.11,0.774,0.331
		c0.203,0.222,0.301,0.496,0.292,0.826l-0.065,3.119c-0.008,0.183,0.03,0.33,0.117,0.442c0.087,0.113,0.204,0.169,0.352,0.169
		c0.216,0,0.377-0.048,0.48-0.143c0.044-0.044,0.078-0.065,0.104-0.065c0.043,0,0.078,0.013,0.104,0.039
		c0.026,0.026,0.039,0.061,0.039,0.104c0,0.034-0.013,0.08-0.039,0.136c-0.025,0.057-0.061,0.106-0.104,0.149
		c-0.139,0.14-0.288,0.25-0.449,0.332c-0.16,0.082-0.31,0.123-0.448,0.123c-0.398,0-0.715-0.225-0.949-0.676h-0.038
		c-0.286,0.234-0.56,0.405-0.819,0.514s-0.529,0.162-0.806,0.162C117.488,49.731,117.333,49.672,117.168,49.556z M119.015,48.795
		c0.052-0.052,0.091-0.117,0.116-0.195c0.026-0.078,0.044-0.19,0.053-0.338l0.025-0.637v-0.078c0-0.069-0.009-0.119-0.025-0.149
		c-0.018-0.03-0.048-0.046-0.092-0.046c-0.052,0-0.139,0.022-0.26,0.065c-0.434,0.156-0.745,0.32-0.936,0.494
		c-0.191,0.173-0.286,0.342-0.286,0.507c0,0.217,0.062,0.386,0.188,0.507c0.125,0.121,0.275,0.182,0.448,0.182
		C118.551,49.107,118.807,49.003,119.015,48.795z"/>
	<path fill="#222222" d="M123.109,53.137c0-0.061,0.023-0.106,0.071-0.137s0.124-0.062,0.228-0.098
		c0.19-0.061,0.332-0.119,0.423-0.175c0.091-0.057,0.137-0.163,0.137-0.318v-6.592c0-0.146-0.053-0.331-0.156-0.552
		c-0.104-0.222-0.252-0.354-0.442-0.396c-0.034-0.009-0.061-0.028-0.078-0.059s-0.025-0.067-0.025-0.11
		c0-0.087,0.03-0.139,0.091-0.156c0.381-0.087,0.715-0.188,1.001-0.306s0.455-0.188,0.507-0.215l0.026-0.013
		c0.017,0,0.034,0.013,0.052,0.039s0.026,0.052,0.026,0.078l-0.026,0.338c-0.026,0.156-0.039,0.304-0.039,0.442
		c0,0.069,0.004,0.108,0.013,0.116c0.096-0.095,0.263-0.21,0.501-0.344c0.238-0.135,0.502-0.254,0.793-0.357
		c0.29-0.104,0.561-0.156,0.812-0.156c0.425,0,0.8,0.117,1.124,0.351c0.325,0.234,0.574,0.54,0.748,0.917
		c0.173,0.377,0.26,0.773,0.26,1.189c0,0.512-0.13,1.007-0.39,1.488c-0.261,0.481-0.616,0.871-1.066,1.17s-0.94,0.448-1.469,0.448
		c-0.191,0-0.425-0.041-0.702-0.123s-0.477-0.18-0.598-0.293c-0.018,0-0.031,0.087-0.039,0.261
		c-0.009,0.173-0.014,0.308-0.014,0.402v2.432c0,0.13,0.057,0.228,0.169,0.292c0.113,0.065,0.228,0.112,0.345,0.144
		c0.117,0.03,0.197,0.05,0.24,0.058c0.104,0.035,0.181,0.067,0.228,0.098c0.048,0.03,0.072,0.076,0.072,0.137
		c0,0.078-0.096,0.117-0.286,0.117c-0.234,0-0.451-0.013-0.65-0.039c-0.226-0.018-0.416-0.026-0.572-0.026
		c-0.139,0-0.303,0.009-0.493,0.026c-0.139,0.026-0.321,0.039-0.547,0.039C123.2,53.254,123.109,53.215,123.109,53.137z
		 M127.133,49.101c0.265-0.151,0.494-0.401,0.689-0.748c0.194-0.347,0.292-0.784,0.292-1.312c0-0.875-0.188-1.476-0.565-1.801
		s-0.778-0.487-1.202-0.487c-0.191,0-0.399,0.041-0.624,0.123c-0.226,0.083-0.416,0.181-0.572,0.293s-0.234,0.199-0.234,0.26
		c0,0.39-0.009,0.845-0.025,1.365c-0.009,0.173-0.014,0.373-0.014,0.598c0,0.338,0.078,0.656,0.234,0.956
		c0.156,0.299,0.355,0.537,0.598,0.715c0.243,0.178,0.481,0.267,0.715,0.267C126.632,49.329,126.868,49.252,127.133,49.101z"/>
	<path fill="#222222" d="M132.696,49.393c-0.359-0.233-0.639-0.565-0.838-0.994c-0.2-0.429-0.3-0.925-0.3-1.488
		c0-0.485,0.115-0.94,0.345-1.365s0.535-0.761,0.917-1.008c0.381-0.247,0.797-0.37,1.248-0.37c0.52,0,0.946,0.153,1.28,0.461
		c0.333,0.309,0.5,0.7,0.5,1.177c0,0.269-0.13,0.403-0.39,0.403h-2.743c-0.121,0-0.206,0.032-0.253,0.098
		c-0.048,0.064-0.072,0.192-0.072,0.383c0,0.408,0.089,0.785,0.267,1.132s0.421,0.621,0.729,0.825
		c0.308,0.203,0.644,0.306,1.007,0.306c0.512,0,0.937-0.195,1.274-0.585c0.052-0.069,0.1-0.104,0.143-0.104
		c0.069,0,0.104,0.044,0.104,0.13c0,0.165-0.078,0.347-0.234,0.546c-0.19,0.252-0.441,0.449-0.754,0.592
		c-0.312,0.143-0.642,0.215-0.988,0.215C133.47,49.745,133.056,49.627,132.696,49.393z M133.925,45.805
		c0.407,0,0.729-0.021,0.962-0.064c0.069-0.009,0.104-0.104,0.104-0.286c0-0.252-0.11-0.466-0.332-0.644
		c-0.221-0.178-0.483-0.267-0.786-0.267c-0.19,0-0.388,0.059-0.592,0.176c-0.203,0.116-0.37,0.262-0.5,0.436
		c-0.13,0.173-0.195,0.347-0.195,0.52c0,0.087,0.052,0.13,0.156,0.13H133.925z"/>
	<path fill="#222222" d="M142.467,49.692l0.026-0.351c0.025-0.173,0.039-0.325,0.039-0.455v-0.078
		c-0.33,0.33-0.668,0.565-1.015,0.709c-0.347,0.143-0.724,0.214-1.131,0.214c-0.442,0-0.8-0.134-1.072-0.402
		c-0.273-0.269-0.409-0.65-0.409-1.145v-2.639c0-0.19-0.044-0.343-0.131-0.455c-0.086-0.112-0.229-0.208-0.429-0.286
		c-0.112-0.034-0.169-0.104-0.169-0.208c0-0.121,0.065-0.19,0.195-0.208c0.269-0.018,0.48-0.039,0.637-0.064
		c0.156-0.026,0.372-0.074,0.65-0.144l0.104-0.013c0.096,0,0.139,0.061,0.13,0.182c-0.052,0.399-0.078,0.732-0.078,1.001v2.535
		c0,0.312,0.113,0.587,0.338,0.825c0.226,0.239,0.477,0.357,0.755,0.357c0.26,0,0.47-0.015,0.63-0.045s0.314-0.102,0.462-0.215
		c0.156-0.112,0.292-0.244,0.409-0.396c0.117-0.151,0.176-0.345,0.176-0.578v-2.379c0-0.234-0.098-0.401-0.293-0.501
		c-0.194-0.1-0.388-0.149-0.578-0.149c-0.182,0-0.273-0.073-0.273-0.221c0-0.13,0.092-0.195,0.273-0.195
		c0.372-0.009,0.669-0.028,0.891-0.059c0.221-0.03,0.457-0.08,0.708-0.149c0.053-0.018,0.096-0.025,0.13-0.025
		c0.044,0,0.083,0.013,0.117,0.038c0.035,0.026,0.052,0.062,0.052,0.104l-0.025,0.117c-0.018,0.096-0.037,0.231-0.059,0.409
		s-0.032,0.34-0.032,0.487v3.003c0,0.434,0.078,0.65,0.233,0.65l0.299-0.026l0.3-0.013c0.13,0,0.194,0.057,0.194,0.169
		c0,0.069-0.015,0.115-0.045,0.137s-0.076,0.037-0.137,0.045c-0.295,0.044-0.555,0.101-0.78,0.17s-0.473,0.16-0.741,0.272
		c-0.104,0.052-0.19,0.078-0.26,0.078C142.497,49.796,142.467,49.761,142.467,49.692z"/>
	<path fill="#222222" d="M147.666,49.334c-0.234-0.264-0.351-0.647-0.351-1.15v-3.016c0-0.078-0.028-0.13-0.085-0.156
		s-0.167-0.039-0.331-0.039h-0.078c-0.044,0-0.08-0.025-0.11-0.078c-0.031-0.052-0.046-0.112-0.046-0.182
		c0-0.018,0.011-0.041,0.032-0.071s0.041-0.055,0.059-0.071c0.468-0.33,0.854-0.677,1.157-1.04c0.034-0.044,0.069-0.08,0.104-0.111
		c0.035-0.03,0.074-0.045,0.117-0.045c0.121,0,0.178,0.048,0.169,0.143l-0.064,0.585v0.053c0,0.077,0.025,0.13,0.078,0.155
		c0.052,0.026,0.13,0.039,0.233,0.039h1.482c0.034,0,0.064,0.028,0.091,0.085s0.039,0.123,0.039,0.201s-0.013,0.154-0.039,0.228
		c-0.026,0.074-0.057,0.11-0.091,0.11h-1.287c-0.234,0-0.379,0.018-0.436,0.052c-0.057,0.035-0.085,0.139-0.085,0.312v2.561
		c0,0.355,0.074,0.631,0.222,0.826c0.146,0.194,0.359,0.292,0.637,0.292c0.242,0,0.436-0.017,0.578-0.052
		c0.144-0.034,0.271-0.096,0.384-0.182l0.052-0.026c0.061,0,0.091,0.061,0.091,0.182c0,0.053-0.077,0.146-0.233,0.28
		c-0.156,0.134-0.349,0.253-0.579,0.357c-0.229,0.104-0.466,0.155-0.708,0.155C148.233,49.731,147.9,49.599,147.666,49.334z"/>
	<path fill="#222222" d="M152.905,49.556c-0.164-0.117-0.301-0.265-0.409-0.442s-0.162-0.345-0.162-0.5
		c0-0.269,0.071-0.481,0.214-0.638c0.144-0.155,0.379-0.303,0.709-0.441l1.326-0.546c0.164-0.069,0.264-0.131,0.299-0.183
		c0.034-0.052,0.056-0.164,0.064-0.338l0.026-0.832c0.009-0.234-0.057-0.431-0.195-0.592c-0.139-0.16-0.329-0.24-0.572-0.24
		c-0.13,0-0.26,0.021-0.39,0.065c-0.13,0.043-0.238,0.1-0.325,0.169c-0.087,0.061-0.13,0.187-0.13,0.377l0.014,0.233
		c0,0.07-0.111,0.163-0.332,0.28c-0.221,0.116-0.396,0.175-0.526,0.175c-0.044,0-0.078-0.011-0.104-0.032
		c-0.025-0.021-0.039-0.05-0.039-0.084c0-0.139,0.046-0.288,0.137-0.449c0.091-0.16,0.219-0.31,0.384-0.448
		c0.295-0.269,0.626-0.489,0.994-0.663c0.368-0.173,0.683-0.26,0.942-0.26c0.312,0,0.57,0.11,0.774,0.331
		c0.203,0.222,0.301,0.496,0.292,0.826l-0.065,3.119c-0.008,0.183,0.03,0.33,0.117,0.442c0.087,0.113,0.204,0.169,0.352,0.169
		c0.216,0,0.377-0.048,0.48-0.143c0.044-0.044,0.078-0.065,0.104-0.065c0.043,0,0.078,0.013,0.104,0.039
		c0.026,0.026,0.039,0.061,0.039,0.104c0,0.034-0.013,0.08-0.039,0.136c-0.025,0.057-0.061,0.106-0.104,0.149
		c-0.139,0.14-0.288,0.25-0.449,0.332c-0.16,0.082-0.31,0.123-0.448,0.123c-0.398,0-0.715-0.225-0.949-0.676h-0.038
		c-0.286,0.234-0.56,0.405-0.819,0.514s-0.529,0.162-0.806,0.162C153.226,49.731,153.07,49.672,152.905,49.556z M154.752,48.795
		c0.052-0.052,0.091-0.117,0.116-0.195c0.026-0.078,0.044-0.19,0.053-0.338l0.025-0.637v-0.078c0-0.069-0.009-0.119-0.025-0.149
		c-0.018-0.03-0.048-0.046-0.092-0.046c-0.052,0-0.139,0.022-0.26,0.065c-0.434,0.156-0.745,0.32-0.936,0.494
		c-0.191,0.173-0.286,0.342-0.286,0.507c0,0.217,0.062,0.386,0.188,0.507c0.125,0.121,0.275,0.182,0.448,0.182
		C154.288,49.107,154.544,49.003,154.752,48.795z"/>
</g>
</svg>
