<?xml version="1.0" encoding="utf-8"?>
<!-- Generator: Adobe Illustrator 16.0.0, SVG Export Plug-In . SVG Version: 6.00 Build 0)  -->
<!DOCTYPE svg PUBLIC "-//W3C//DTD SVG 1.1//EN" "http://www.w3.org/Graphics/SVG/1.1/DTD/svg11.dtd">
<svg version="1.1" id="Livello_1" xmlns="http://www.w3.org/2000/svg" xmlns:xlink="http://www.w3.org/1999/xlink" x="0px" y="0px"
	 width="218px" height="59.609px" viewBox="0 -1.164 218 59.609" enable-background="new 0 -1.164 218 59.609" xml:space="preserve"
	>
<g>
	<linearGradient id="SVGID_1_" gradientUnits="userSpaceOnUse" x1="-4.554" y1="47.7976" x2="38.1362" y2="5.1075">
		<stop  offset="0.5492" style="stop-color:#015A51"/>
		<stop  offset="1" style="stop-color:#00A453"/>
	</linearGradient>
	<path fill="url(#SVGID_1_)" d="M35.454,35.505c-0.128-1.145-0.375-2.307-0.778-3.45c-0.411-1.141-0.991-2.264-1.772-3.28
		c-0.78-1.015-1.764-1.915-2.887-2.59c-1.126-0.673-2.38-1.105-3.635-1.31c-1.257-0.202-2.517-0.192-3.715-0.002
		c-0.16,0.025-0.318,0.054-0.475,0.085c0.326-0.365,0.651-0.729,0.967-1.104c1.684-1.983,3.234-4.099,4.629-6.316
		c0.7-1.107,1.351-2.245,1.972-3.398s1.203-2.328,1.744-3.52c0.548-1.189,1.055-2.395,1.529-3.613
		c0.482-1.215,0.912-2.447,1.334-3.682l0,0l0.052-0.198c0.113-0.44,0.107-0.917-0.041-1.383c-0.421-1.318-1.831-2.046-3.149-1.625
		c-1.352,0.432-2.688,0.911-3.981,1.492c-1.29,0.587-2.555,1.226-3.759,1.964c-1.203,0.737-2.37,1.53-3.468,2.402
		c-1.098,0.872-2.144,1.801-3.131,2.78c-0.98,0.987-1.903,2.021-2.771,3.091c-0.868,1.071-1.666,2.189-2.421,3.329
		c-0.756,1.139-1.448,2.314-2.094,3.507c-0.646,1.193-1.247,2.406-1.794,3.64c-0.55,1.23-1.058,2.477-1.526,3.734
		c-0.463,1.26-0.888,2.529-1.277,3.808c-0.438,1.428-0.824,2.866-1.172,4.312c0.005-0.087,0.011-0.174,0.016-0.261
		c0.06-1.084,0.108-2.168,0.154-3.252c0.042-1.085,0.078-2.169,0.106-3.253c0.115-4.338,0.103-8.678-0.098-13.022
		c-0.048-1.086-0.119-2.172-0.186-3.258c-0.08-1.087-0.164-2.173-0.267-3.261C3.453,6.783,3.335,5.696,3.195,4.608
		C3.055,3.52,2.897,2.432,2.69,1.343C2.681,1.3,2.647,1.262,2.602,1.252C2.539,1.238,2.476,1.276,2.463,1.339
		C2.212,2.419,2.012,3.5,1.83,4.581C1.647,5.663,1.486,6.745,1.339,7.826c-0.146,1.082-0.273,2.165-0.396,3.248
		c-0.11,1.083-0.224,2.166-0.313,3.249c-0.371,4.333-0.554,8.669-0.61,13.008C0.007,28.415,0,29.5,0,30.585
		c0.002,1.086,0.009,2.17,0.026,3.256c0.018,1.085,0.04,2.171,0.074,3.256c0.035,1.086,0.08,2.172,0.127,3.258
		c0.057,1.086,0.111,2.172,0.187,3.259c0.033,0.543,0.071,1.086,0.116,1.63c0.042,0.543,0.082,1.086,0.134,1.63
		c0.096,1.087,0.202,2.174,0.329,3.262c0.127,1.088,0.266,2.175,0.448,3.263l0.003,0.021c0,0.103-0.002,0.204-0.002,0.306
		c0,0.002,0,0.004,0,0.006l0,0.009c-0.004,0.06,0.042,0.113,0.102,0.12c0.062,0.006,0.118-0.04,0.125-0.103l0,0
		c0.532-1.936,1.108-3.839,1.875-5.621c0.766-1.782,1.724-3.43,2.875-4.942C6.985,42.43,7.6,41.7,8.242,40.985
		c0.638-0.718,1.305-1.418,1.995-2.107c1.366-1.387,2.806-2.733,4.242-4.099l1.084-1.019l0.523-0.488l0.273-0.254l0.137-0.128
		l0.119-0.103l0.237-0.205l0.256-0.21c0.169-0.144,0.347-0.271,0.521-0.407c0.354-0.258,0.711-0.51,1.08-0.734
		c1.466-0.905,3.053-1.545,4.61-1.713c1.55-0.19,3.032,0.081,4.184,0.817c0.583,0.358,1.093,0.829,1.523,1.397
		c0.43,0.569,0.774,1.24,1.036,1.976c0.535,1.47,0.719,3.192,0.646,4.955c-0.027,0.885-0.117,1.782-0.256,2.684
		c-0.032,0.226-0.077,0.452-0.114,0.678l-0.024,0.139l-0.037,0.184l-0.074,0.366c-0.025,0.13-0.049,0.23-0.074,0.333l-0.07,0.312
		c-0.045,0.21-0.106,0.433-0.159,0.647c-0.456,1.726-1.136,3.343-2.074,4.704c-0.947,1.353-2.168,2.431-3.639,3.053
		c-1.459,0.638-3.165,0.804-4.817,0.491c-0.822-0.162-1.631-0.44-2.357-0.84c-0.725-0.4-1.37-0.927-1.814-1.546
		c-0.108-0.156-0.207-0.317-0.287-0.483c-0.039-0.079-0.078-0.175-0.107-0.243l-0.103-0.323c-0.119-0.386-0.194-0.811-0.211-1.225
		c-0.039-0.833,0.15-1.693,0.545-2.505c0.392-0.815,0.972-1.576,1.647-2.263c0.677-0.684,1.451-1.311,2.284-1.836l0.005-0.004
		c0.044-0.027,0.064-0.082,0.047-0.133c-0.021-0.06-0.085-0.091-0.144-0.071c-0.968,0.331-1.88,0.801-2.739,1.386
		c-0.855,0.587-1.658,1.302-2.296,2.198c-0.639,0.889-1.105,1.979-1.224,3.142c-0.064,0.582-0.054,1.159,0.03,1.749l0.034,0.222
		l0.033,0.184c0.037,0.171,0.069,0.315,0.113,0.47c0.087,0.304,0.203,0.596,0.335,0.876c0.268,0.56,0.614,1.063,1.003,1.52
		c0.394,0.449,0.832,0.848,1.296,1.203c0.93,0.712,1.974,1.238,3.075,1.599c2.195,0.73,4.659,0.775,6.954,0.053
		c1.142-0.366,2.232-0.917,3.209-1.611c0.981-0.691,1.832-1.537,2.568-2.444c1.475-1.823,2.433-3.916,3.1-6.01
		c0.079-0.266,0.163-0.521,0.237-0.795l0.11-0.413c0.036-0.139,0.073-0.279,0.098-0.394l0.085-0.364l0.042-0.183l0.048-0.228
		c0.052-0.265,0.111-0.526,0.156-0.794c0.195-1.063,0.335-2.15,0.401-3.259C35.608,37.78,35.586,36.65,35.454,35.505z M6.963,30.545
		c0.474-1.208,0.979-2.401,1.519-3.576c0.544-1.173,1.122-2.325,1.736-3.455c0.611-1.131,1.27-2.232,1.963-3.305
		c0.693-1.072,1.423-2.116,2.205-3.114c0.78-0.998,1.592-1.967,2.457-2.877c0.864-0.911,1.769-1.775,2.711-2.588
		c0.949-0.803,1.937-1.55,2.958-2.24c1.023-0.688,2.09-1.296,3.179-1.852c0.797-0.407,1.618-0.763,2.448-1.088
		c-1,3.147-2.228,6.212-3.75,9.136c-1.125,2.159-2.403,4.242-3.833,6.234c-1.427,1.995-3.007,3.897-4.673,5.757
		c-0.278,0.312-0.562,0.62-0.844,0.929c-0.037,0.03-0.075,0.061-0.111,0.09c-0.209,0.186-0.424,0.364-0.625,0.555l-0.305,0.285
		l-0.31,0.304l-0.155,0.153l-0.128,0.135l-0.258,0.271l-0.053,0.057l-0.032,0.034l-0.062,0.069l-0.126,0.141l-0.251,0.278
		l-1.004,1.122c-1.343,1.496-2.658,3.034-3.928,4.64c-0.629,0.807-1.244,1.636-1.832,2.49c-0.583,0.858-1.133,1.748-1.636,2.669
		c-0.465,0.863-0.878,1.757-1.232,2.67c0.014-0.128,0.029-0.258,0.042-0.386c0.419-2.062,0.904-4.106,1.468-6.125
		C5.201,35.44,6.012,32.961,6.963,30.545z"/>
	<g>
		<path fill="#333333" d="M55.565,5.139c0,0.96-0.219,1.79-0.657,2.489c-0.455,0.732-1.116,1.268-1.983,1.604
			c-0.589,0.228-1.47,0.341-2.64,0.341c-0.017,0-0.109,0-0.278,0s-0.413,0-0.732,0h-0.455c-0.017,0-0.291,0-0.821,0h-0.796
			c-0.126,0-0.189-0.034-0.189-0.101c0-0.084,0.118-0.122,0.354-0.114c0.362,0.008,0.581-0.055,0.657-0.189
			c0.034-0.059,0.051-0.316,0.051-0.771v-6.43c0-0.371-0.025-0.598-0.076-0.682c-0.084-0.152-0.299-0.223-0.645-0.215
			c-0.185,0.008-0.278-0.034-0.278-0.126c0-0.076,0.059-0.114,0.177-0.114h0.228c0.505,0,0.994,0.004,1.465,0.013
			c0.674,0.009,1.196,0.013,1.566,0.013c1.533,0,2.708,0.316,3.524,0.947C55.055,2.596,55.565,3.707,55.565,5.139z M53.38,5.145
			c0-1.392-0.207-2.41-0.619-3.055c-0.413-0.646-1.061-0.968-1.945-0.968c-0.32,0-0.531,0.034-0.632,0.102
			c-0.135,0.084-0.202,0.283-0.202,0.594v6.478c0,0.557,0.034,0.864,0.101,0.923c0.101,0.093,0.324,0.139,0.67,0.139
			C52.504,9.358,53.38,7.954,53.38,5.145z"/>
		<path fill="#333333" d="M62.184,6.882c0,0.901-0.354,1.63-1.061,2.186c-0.556,0.438-1.167,0.657-1.832,0.657
			c-0.792,0-1.476-0.284-2.053-0.853c-0.577-0.568-0.865-1.24-0.865-2.015c0-0.809,0.288-1.497,0.865-2.065
			c0.577-0.568,1.274-0.853,2.091-0.853c0.783,0,1.455,0.289,2.015,0.865S62.184,6.074,62.184,6.882z M60.277,6.895
			c0-1.044-0.071-1.76-0.213-2.147c-0.159-0.429-0.415-0.644-0.766-0.644c-0.327,0-0.582,0.226-0.766,0.676
			c-0.184,0.451-0.276,1.072-0.276,1.863c0,1.104,0.108,1.887,0.326,2.35c0.176,0.371,0.422,0.556,0.741,0.556
			c0.393,0,0.653-0.236,0.778-0.708C60.218,8.394,60.277,7.746,60.277,6.895z"/>
		<path fill="#333333" d="M66.984,8.752c0,0.093-0.081,0.215-0.242,0.367c-0.416,0.396-0.988,0.593-1.718,0.593
			c-0.67,0-1.112-0.164-1.324-0.493c-0.085-0.126-0.134-0.244-0.146-0.354s-0.019-0.392-0.019-0.846V7.413
			c0.017-0.16,0.025-0.329,0.025-0.505l-0.025-0.265V5.506v-0.91c0-0.152-0.021-0.24-0.063-0.265
			c-0.042-0.025-0.168-0.038-0.379-0.038c-0.252,0-0.379-0.034-0.379-0.101c0-0.05,0.046-0.084,0.139-0.101
			c0.791-0.025,1.474-0.455,2.046-1.289c0.076-0.118,0.134-0.177,0.177-0.177c0.05,0,0.076,0.059,0.076,0.177
			c-0.008,0.725,0.021,1.12,0.088,1.188s0.273,0.101,0.619,0.101c0.354,0,0.602-0.017,0.745-0.05
			c0.017-0.008,0.034-0.013,0.051-0.013c0.033,0,0.05,0.026,0.05,0.079c0,0.124-0.054,0.186-0.163,0.186
			c-0.343,0.009-0.723,0.013-1.14,0.013c-0.033,0-0.092,0-0.175,0v0.264c0,2.246,0.017,3.561,0.051,3.946
			c0.077,0.486,0.316,0.729,0.718,0.729c0.18,0,0.41-0.126,0.692-0.379c0.137-0.118,0.222-0.177,0.256-0.177
			C66.971,8.689,66.984,8.71,66.984,8.752z"/>
		<path fill="#333333" d="M71.102,8.752c0,0.093-0.081,0.215-0.242,0.367c-0.416,0.396-0.988,0.593-1.718,0.593
			c-0.67,0-1.112-0.164-1.324-0.493c-0.085-0.126-0.134-0.244-0.146-0.354s-0.019-0.392-0.019-0.846V7.413
			c0.017-0.16,0.025-0.329,0.025-0.505l-0.025-0.265V5.506v-0.91c0-0.152-0.021-0.24-0.063-0.265
			c-0.042-0.025-0.168-0.038-0.379-0.038c-0.252,0-0.379-0.034-0.379-0.101c0-0.05,0.046-0.084,0.139-0.101
			c0.791-0.025,1.474-0.455,2.046-1.289c0.076-0.118,0.134-0.177,0.177-0.177c0.05,0,0.076,0.059,0.076,0.177
			c-0.008,0.725,0.021,1.12,0.088,1.188s0.273,0.101,0.619,0.101c0.354,0,0.602-0.017,0.745-0.05
			c0.017-0.008,0.034-0.013,0.051-0.013c0.033,0,0.05,0.026,0.05,0.079c0,0.124-0.054,0.186-0.163,0.186
			c-0.343,0.009-0.723,0.013-1.14,0.013c-0.033,0-0.092,0-0.175,0v0.264c0,2.246,0.017,3.561,0.051,3.946
			c0.077,0.486,0.316,0.729,0.718,0.729c0.18,0,0.41-0.126,0.692-0.379c0.137-0.118,0.222-0.177,0.256-0.177
			C71.089,8.689,71.102,8.71,71.102,8.752z"/>
		<path fill="#333333" d="M73.528,8.777c0,0.261-0.084,0.476-0.253,0.644c-0.168,0.168-0.383,0.253-0.644,0.253
			c-0.261,0-0.48-0.086-0.657-0.259c-0.177-0.172-0.265-0.385-0.265-0.638c0-0.261,0.088-0.48,0.265-0.657
			c0.177-0.177,0.396-0.266,0.657-0.266c0.244,0,0.455,0.089,0.631,0.266S73.528,8.516,73.528,8.777z"/>
		<path fill="#333333" d="M78.795,7.817c0,0.564-0.172,1.021-0.517,1.371s-0.789,0.524-1.334,0.524
			c-0.269,0-0.587-0.067-0.957-0.202c-0.302-0.109-0.5-0.165-0.592-0.165c-0.159,0-0.264,0.062-0.314,0.183
			c-0.051,0.122-0.088,0.183-0.113,0.183c-0.051,0-0.076-0.03-0.076-0.089c0-0.051,0.007-0.131,0.02-0.242
			c0.02-0.161,0.03-0.44,0.03-0.839c0-0.017,0-0.06,0-0.127c0-0.067,0-0.161,0-0.28V7.919c0-0.093,0.021-0.14,0.063-0.14
			c0.05,0,0.088,0.063,0.113,0.189c0.075,0.447,0.29,0.819,0.642,1.118s0.746,0.448,1.182,0.448c0.277,0,0.501-0.086,0.673-0.259
			c0.172-0.172,0.258-0.398,0.258-0.676c0-0.219-0.08-0.404-0.24-0.556c-0.118-0.109-0.434-0.249-0.948-0.417
			c-0.631-0.21-1.088-0.465-1.37-0.764c-0.283-0.299-0.423-0.68-0.423-1.144c0-0.497,0.168-0.917,0.505-1.263
			c0.336-0.345,0.75-0.518,1.238-0.518c0.185,0,0.505,0.059,0.96,0.177c0.067,0.017,0.118,0.025,0.152,0.025
			c0.185,0,0.324-0.114,0.417-0.341c0.017-0.042,0.038-0.063,0.063-0.063c0.059,0,0.088,0.05,0.088,0.151l-0.013,0.24
			c-0.008,0.034-0.013,0.093-0.013,0.177c0,0.345,0.021,0.699,0.063,1.061v0.063c0,0.068-0.025,0.101-0.076,0.101
			c-0.042,0-0.076-0.038-0.101-0.114c-0.244-0.859-0.741-1.288-1.491-1.288c-0.278,0-0.507,0.076-0.688,0.227
			c-0.182,0.152-0.272,0.346-0.272,0.581c0,0.219,0.076,0.392,0.228,0.518s0.446,0.27,0.884,0.43
			c0.766,0.27,1.284,0.539,1.554,0.808C78.66,6.963,78.795,7.337,78.795,7.817z"/>
		<path fill="#333333" d="M83.393,7.817c0,0.564-0.172,1.021-0.517,1.371s-0.789,0.524-1.334,0.524
			c-0.269,0-0.587-0.067-0.957-0.202c-0.302-0.109-0.5-0.165-0.592-0.165c-0.159,0-0.264,0.062-0.314,0.183
			c-0.051,0.122-0.088,0.183-0.113,0.183c-0.051,0-0.076-0.03-0.076-0.089c0-0.051,0.007-0.131,0.02-0.242
			c0.02-0.161,0.03-0.44,0.03-0.839c0-0.017,0-0.06,0-0.127c0-0.067,0-0.161,0-0.28V7.919c0-0.093,0.021-0.14,0.063-0.14
			c0.05,0,0.088,0.063,0.113,0.189c0.075,0.447,0.29,0.819,0.642,1.118s0.746,0.448,1.182,0.448c0.277,0,0.501-0.086,0.673-0.259
			C82.385,9.104,82.47,8.878,82.47,8.6c0-0.219-0.08-0.404-0.24-0.556c-0.118-0.109-0.434-0.249-0.948-0.417
			c-0.631-0.21-1.088-0.465-1.37-0.764C79.63,6.565,79.49,6.183,79.49,5.72c0-0.497,0.168-0.917,0.505-1.263
			c0.336-0.345,0.75-0.518,1.238-0.518c0.185,0,0.505,0.059,0.96,0.177c0.067,0.017,0.118,0.025,0.152,0.025
			c0.185,0,0.324-0.114,0.417-0.341c0.017-0.042,0.038-0.063,0.063-0.063c0.059,0,0.088,0.05,0.088,0.151L82.9,4.129
			c-0.008,0.034-0.013,0.093-0.013,0.177c0,0.345,0.021,0.699,0.063,1.061v0.063c0,0.068-0.025,0.101-0.076,0.101
			c-0.042,0-0.076-0.038-0.101-0.114c-0.244-0.859-0.741-1.288-1.491-1.288c-0.278,0-0.507,0.076-0.688,0.227
			c-0.182,0.152-0.272,0.346-0.272,0.581c0,0.219,0.076,0.392,0.228,0.518s0.446,0.27,0.884,0.43
			c0.766,0.27,1.284,0.539,1.554,0.808C83.258,6.963,83.393,7.337,83.393,7.817z"/>
		<path fill="#333333" d="M89.545,8.892c0,0.068-0.067,0.163-0.202,0.282c-0.362,0.333-0.809,0.5-1.339,0.5
			c-0.346,0-0.596-0.073-0.752-0.218c-0.156-0.145-0.259-0.405-0.309-0.78c-0.379,0.69-0.897,1.036-1.554,1.036
			c-0.362,0-0.655-0.113-0.878-0.341c-0.224-0.228-0.335-0.522-0.335-0.884c0-1.061,0.91-1.688,2.729-1.882V6.339
			c0-0.842-0.03-1.36-0.088-1.554l-0.013-0.063c-0.118-0.421-0.417-0.632-0.897-0.632c-0.278,0-0.501,0.08-0.669,0.24
			c-0.168,0.16-0.252,0.315-0.252,0.467c0,0.084,0.101,0.135,0.303,0.151c0.303,0.025,0.455,0.211,0.455,0.556
			c0,0.185-0.061,0.339-0.183,0.461s-0.28,0.183-0.474,0.183c-0.245,0-0.444-0.074-0.6-0.221c-0.156-0.147-0.234-0.334-0.234-0.562
			c0-0.362,0.181-0.69,0.543-0.985c0.362-0.294,0.838-0.442,1.427-0.442c0.876,0,1.486,0.156,1.832,0.467
			c0.278,0.261,0.417,0.716,0.417,1.364v2.16c0,0.421,0.004,0.665,0.013,0.732c0.042,0.354,0.164,0.531,0.366,0.531
			c0.143,0,0.32-0.101,0.531-0.303c0.042-0.042,0.076-0.063,0.101-0.063C89.524,8.828,89.545,8.849,89.545,8.892z M86.905,7.387
			V6.769c-0.817,0.16-1.225,0.623-1.225,1.389c0,0.59,0.202,0.884,0.606,0.884c0.228,0,0.387-0.126,0.48-0.379
			C86.858,8.411,86.905,7.986,86.905,7.387z"/>
		<path fill="#005951" d="M62.168,20.007c0,0.145-0.064,0.216-0.192,0.216c-0.111,0-0.188-0.045-0.234-0.137
			c-0.046-0.091-0.133-0.402-0.261-0.932c-0.367-1.461-1.073-2.439-2.118-2.933c-0.624-0.292-1.732-0.438-3.327-0.438
			c-0.733,0-1.577,0.027-2.53,0.083v8.388h0.799c1.726,0,2.805-0.183,3.236-0.549c0.432-0.365,0.758-1.379,0.979-3.043
			c0.037-0.236,0.128-0.355,0.275-0.355s0.221,0.137,0.221,0.411c0-0.092-0.01,0.032-0.028,0.37s-0.027,0.891-0.027,1.658v1.781
			c0,1.279,0.009,2.125,0.027,2.536s0.028,0.763,0.028,1.055c0,0.293-0.083,0.439-0.248,0.439c-0.239,0-0.376-0.293-0.414-0.878
			c-0.091-1.333-0.422-2.201-0.991-2.604c-0.276-0.201-0.763-0.302-1.46-0.302c-0.937,0-1.735,0.01-2.396,0.027v6.634
			c0,1.17,0.092,1.854,0.276,2.056s0.822,0.302,1.911,0.302c0.333,0,0.499,0.073,0.499,0.219c0,0.165-0.174,0.247-0.521,0.247
			c-0.402,0-0.887-0.01-1.453-0.027c-1.133-0.036-2.412-0.055-3.837-0.055c-1.005,0-1.892,0.021-2.659,0.062
			c-0.109,0.014-0.238,0.021-0.384,0.021c-0.219,0-0.329-0.078-0.329-0.233c0-0.156,0.292-0.242,0.877-0.26
			c0.859-0.036,1.334-0.237,1.425-0.604c0.073-0.146,0.11-0.401,0.11-0.768V16.496c-0.037-0.256-0.144-0.429-0.32-0.521
			c-0.175-0.091-0.527-0.155-1.055-0.192c-0.528-0.036-0.791-0.119-0.791-0.247c0-0.183,0.182-0.274,0.548-0.274h0.521
			c0.073,0,0.768-0.009,2.083-0.028c1.462-0.036,2.75-0.055,3.865-0.055c1.663-0.018,3.07-0.018,4.221,0l1.892,0.083
			c0.292,0,0.73-0.028,1.315-0.083c0.146,2.169,0.292,3.67,0.439,4.501C62.158,19.79,62.168,19.899,62.168,20.007z"/>
		<path fill="#005951" d="M72.502,30.886c0,0.402-0.238,0.933-0.713,1.591c-1.024,1.407-2.357,2.11-4.002,2.11
			c-1.846,0-3.363-0.585-4.551-1.755c-1.188-1.169-1.782-2.668-1.782-4.495c0-1.791,0.576-3.285,1.727-4.481
			c1.151-1.197,2.586-1.796,4.304-1.796c1.169,0,2.166,0.256,2.988,0.768c0.914,0.566,1.508,1.38,1.782,2.439
			c0.073,0.329,0.128,0.723,0.165,1.179c-0.42,0.049-2.111,0.086-5.071,0.109c-0.457,0-1.033,0.019-1.727,0.056
			c-0.055,0.655-0.083,1.21-0.083,1.665c0,2.13,0.448,3.641,1.343,4.532c0.53,0.528,1.179,0.792,1.946,0.792
			c0.639,0,1.256-0.219,1.85-0.657s1.046-1.005,1.357-1.7c0.146-0.347,0.265-0.521,0.356-0.521
			C72.465,30.722,72.502,30.777,72.502,30.886z M69.048,26.09c0.018-1.396-0.082-2.367-0.302-2.911
			c-0.219-0.544-0.603-0.816-1.151-0.816c-1.115,0-1.754,1.243-1.919,3.728c0.384,0,1.188,0,2.412,0
			C68.453,26.09,68.774,26.09,69.048,26.09z"/>
		<path fill="#005951" d="M87.386,33.711c0,0.128-0.183,0.191-0.548,0.191h-1.234c-0.896-0.018-1.836,0.193-2.823,0.633
			c-0.109,0.035-0.174,0.053-0.192,0.053c-0.165,0-0.256-0.165-0.274-0.493c0-0.165-0.027-0.394-0.083-0.686
			c-0.731,0.786-1.699,1.179-2.905,1.179c-1.608,0-2.933-0.594-3.975-1.782c-1.042-1.188-1.562-2.695-1.562-4.522
			c0-1.864,0.53-3.367,1.59-4.51c1.06-1.142,2.458-1.713,4.194-1.713c1.133,0,2.056,0.421,2.769,1.261v-3.837
			c0-1.645-0.073-2.618-0.219-2.919c-0.146-0.301-0.63-0.443-1.453-0.425c-0.475,0-0.712-0.064-0.712-0.192
			c0-0.127,0.11-0.192,0.332-0.192c1.678,0,3.283-0.247,4.814-0.74c0.221-0.073,0.378-0.109,0.47-0.109
			c0.203,0,0.305,0.219,0.305,0.658v1.371v2.631v13.076c0,0.311,0.045,0.521,0.137,0.631c0.127,0.164,0.447,0.237,0.959,0.219
			C87.249,33.473,87.386,33.546,87.386,33.711z M82.343,31.243v-5.976c0-0.822-0.138-1.435-0.414-1.836
			c-0.349-0.512-0.836-0.768-1.461-0.768c-1.765,0-2.647,1.946-2.647,5.838c0,1.736,0.225,3.08,0.675,4.03s1.08,1.425,1.889,1.425
			c0.478,0,0.924-0.214,1.338-0.644C82.135,32.884,82.343,32.194,82.343,31.243z"/>
		<path fill="#005951" d="M98.351,30.886c0,0.402-0.238,0.933-0.713,1.591c-1.024,1.407-2.357,2.11-4.002,2.11
			c-1.846,0-3.363-0.585-4.551-1.755c-1.188-1.169-1.782-2.668-1.782-4.495c0-1.791,0.576-3.285,1.727-4.481
			c1.151-1.197,2.586-1.796,4.304-1.796c1.169,0,2.166,0.256,2.988,0.768c0.914,0.566,1.508,1.38,1.782,2.439
			c0.073,0.329,0.128,0.723,0.165,1.179c-0.42,0.049-2.111,0.086-5.071,0.109c-0.457,0-1.033,0.019-1.727,0.056
			c-0.055,0.655-0.083,1.21-0.083,1.665c0,2.13,0.448,3.641,1.343,4.532c0.53,0.528,1.179,0.792,1.946,0.792
			c0.639,0,1.256-0.219,1.85-0.657s1.046-1.005,1.357-1.7c0.146-0.347,0.265-0.521,0.356-0.521
			C98.314,30.722,98.351,30.777,98.351,30.886z M94.897,26.09c0.018-1.396-0.082-2.367-0.302-2.911
			c-0.219-0.544-0.603-0.816-1.151-0.816c-1.115,0-1.754,1.243-1.919,3.728c0.384,0,1.188,0,2.412,0
			C94.302,26.09,94.623,26.09,94.897,26.09z"/>
		<path fill="#005951" d="M109.232,24.089c0,0.53-0.154,0.964-0.465,1.303c-0.311,0.338-0.713,0.507-1.207,0.507
			c-0.986,0-1.48-0.457-1.48-1.371c0-0.311,0.119-0.621,0.357-0.932c0.055-0.073,0.082-0.137,0.082-0.192
			c0-0.164-0.117-0.246-0.352-0.246c-0.614,0-1.083,0.483-1.407,1.449c-0.18,0.547-0.271,1.887-0.271,4.019v1.996v2.406
			c0,0.492,0.248,0.757,0.74,0.793c0.293,0.019,0.641,0.027,1.043,0.027c0.201,0.019,0.301,0.082,0.301,0.192
			c0,0.146-0.082,0.219-0.246,0.219h-0.549c-0.164,0-0.959,0-2.385,0c0.072,0-0.338,0-1.234,0h-1.342h-1.042
			c-0.183,0-0.393,0-0.63,0c-0.202,0-0.302-0.059-0.302-0.178s0.127-0.179,0.384-0.179c0.749-0.018,1.202-0.096,1.356-0.232
			c0.156-0.136,0.234-0.542,0.234-1.217l-0.027-7.382c0-0.619-0.088-1.048-0.262-1.284c-0.173-0.237-0.561-0.384-1.164-0.438
			c-0.476-0.034-0.745-0.06-0.809-0.077c-0.064-0.017-0.096-0.077-0.096-0.18s0.073-0.154,0.219-0.154c0.165,0,0.32,0,0.466,0h0.548
			c1.408,0,2.923-0.292,4.55-0.877c0.092,0.366,0.137,0.786,0.137,1.261v1.151c0.348-0.885,0.727-1.509,1.139-1.87
			c0.411-0.361,0.946-0.542,1.604-0.542c0.621,0,1.127,0.192,1.521,0.576C109.037,23.019,109.232,23.505,109.232,24.089z"/>
		<path fill="#005951" d="M117.594,34.067c0,0.128-0.082,0.191-0.246,0.191h-3.633h-2.621c-0.109,0-0.246,0-0.41,0
			c-0.146,0-0.229,0-0.246,0c-0.219,0-0.328-0.059-0.328-0.176c0-0.087,0.211-0.139,0.631-0.153
			c0.621-0.018,0.986-0.087,1.098-0.206c0.109-0.12,0.164-0.482,0.164-1.089v-7.907c0-0.698-0.061-1.116-0.178-1.254
			c-0.119-0.138-0.48-0.207-1.084-0.207c-0.383,0-0.607-0.009-0.672-0.027c-0.064-0.018-0.096-0.082-0.096-0.191
			c0-0.128,0.137-0.192,0.412-0.192c2.01-0.018,3.727-0.329,5.152-0.932c0.037,0.219,0.082,0.822,0.137,1.809v3.481v5.153
			c0,0.75,0.07,1.188,0.207,1.316s0.607,0.191,1.41,0.191C117.492,33.875,117.594,33.939,117.594,34.067z M115.674,16.688
			c0,0.512-0.178,0.95-0.531,1.315c-0.355,0.366-0.785,0.548-1.291,0.548c-0.523,0-0.963-0.173-1.316-0.521
			c-0.355-0.347-0.533-0.786-0.533-1.316c0-0.511,0.178-0.932,0.533-1.261c0.354-0.329,0.812-0.493,1.373-0.493
			c0.504,0,0.926,0.165,1.262,0.493C115.506,15.783,115.674,16.194,115.674,16.688z"/>
		<path fill="#005951" d="M127.926,24.856c0,0.438-0.127,0.795-0.383,1.069s-0.586,0.411-0.986,0.411
			c-0.969,0-1.453-0.43-1.453-1.288c0-0.22,0.059-0.48,0.178-0.781c0.119-0.302,0.178-0.517,0.178-0.645
			c0-0.347-0.133-0.645-0.396-0.891c-0.266-0.247-0.59-0.37-0.973-0.37c-1.664,0-2.496,1.854-2.496,5.564
			c0,2.12,0.365,3.637,1.098,4.551c0.566,0.694,1.26,1.041,2.082,1.041c0.859,0,1.736-0.557,2.633-1.672
			c0.109-0.146,0.209-0.22,0.301-0.22c0.072,0,0.109,0.056,0.109,0.165c0,0.347-0.328,0.832-0.986,1.452
			c-0.951,0.896-2.092,1.344-3.426,1.344c-1.645,0-3.049-0.59-4.209-1.769s-1.74-2.608-1.74-4.29c0-1.827,0.611-3.366,1.836-4.618
			s2.732-1.878,4.523-1.878c1.152,0,2.125,0.274,2.92,0.822S127.926,24.071,127.926,24.856z"/>
		<path fill="#005951" d="M140.947,32.78c0,0.149-0.146,0.353-0.439,0.612c-0.785,0.724-1.754,1.086-2.904,1.086
			c-0.75,0-1.293-0.158-1.631-0.473c-0.34-0.314-0.562-0.879-0.672-1.693c-0.822,1.499-1.947,2.248-3.373,2.248
			c-0.785,0-1.42-0.247-1.904-0.74s-0.727-1.133-0.727-1.919c0-2.303,1.975-3.664,5.922-4.084v-0.576
			c0-1.827-0.064-2.951-0.193-3.371l-0.027-0.138c-0.256-0.913-0.904-1.37-1.945-1.37c-0.604,0-1.088,0.174-1.453,0.521
			c-0.365,0.348-0.549,0.686-0.549,1.015c0,0.183,0.221,0.292,0.658,0.329c0.658,0.055,0.986,0.457,0.986,1.206
			c0,0.401-0.133,0.735-0.396,1c-0.266,0.266-0.607,0.397-1.027,0.397c-0.531,0-0.965-0.159-1.303-0.479
			c-0.338-0.319-0.508-0.727-0.508-1.22c0-0.786,0.393-1.498,1.18-2.139c0.785-0.639,1.818-0.959,3.098-0.959
			c1.9,0,3.225,0.338,3.975,1.015c0.604,0.566,0.904,1.553,0.904,2.96v4.688c0,0.914,0.01,1.443,0.027,1.59
			c0.092,0.768,0.355,1.151,0.795,1.151c0.311,0,0.693-0.22,1.15-0.658c0.092-0.091,0.166-0.137,0.221-0.137
			C140.9,32.641,140.947,32.688,140.947,32.78z M135.219,29.516v-1.343c-1.773,0.347-2.66,1.353-2.66,3.015
			c0,1.279,0.439,1.919,1.316,1.919c0.494,0,0.84-0.274,1.041-0.822S135.219,30.814,135.219,29.516z"/>
		<path fill="#005951" d="M160.875,29.283c0,1.137-0.348,2.112-1.041,2.928c-0.695,0.815-1.654,1.36-2.879,1.636
			c-0.969,0.22-1.881,0.348-2.74,0.385c-0.859,0.036-3.381,0.055-7.566,0.055c-0.584,0-0.932-0.01-1.041-0.027
			c-0.109-0.019-0.164-0.082-0.164-0.192c0-0.164,0.297-0.247,0.891-0.247s0.963-0.087,1.109-0.261s0.219-0.599,0.219-1.276V16.579
			c0-0.531-0.424-0.805-1.275-0.824c-0.648-0.017-0.971-0.095-0.971-0.233c0-0.155,0.199-0.233,0.602-0.233c0.385,0,0.76,0,1.125,0
			h6.578c4.223,0,6.332,1.448,6.332,4.343c0,2.401-1.572,3.885-4.715,4.454l-0.055,0.11c1.846,0.385,3.125,0.87,3.838,1.457
			C160.291,26.626,160.875,27.835,160.875,29.283z M156.49,29.16c0-2.576-0.732-4.075-2.195-4.495
			c-0.578-0.165-1.408-0.247-2.492-0.247v1.59c0,0.457-0.02,1.106-0.055,1.946c-0.02,0.421-0.027,1.206-0.027,2.357
			c0,1.974,0.055,3.024,0.164,3.152c0.146,0.201,0.557,0.302,1.232,0.302C155.365,33.765,156.49,32.23,156.49,29.16z
			 M155.969,19.785c0-2.65-0.807-3.975-2.42-3.975c-0.572,0-0.959,0.027-1.154,0.083c-0.395,0.128-0.592,0.411-0.592,0.85v7.237
			c1.594,0,2.688-0.283,3.279-0.85S155.969,21.448,155.969,19.785z"/>
		<path fill="#005951" d="M176.172,33.354c0,0.146-0.156,0.229-0.467,0.246c-1.662,0.056-2.814,0.143-3.453,0.261
			c-0.641,0.119-1.189,0.334-1.645,0.645c-0.111,0.072-0.211,0.109-0.303,0.109c-0.072,0-0.109-0.073-0.109-0.22
			c0-0.255,0-0.461,0-0.616s0-0.343,0-0.562c0-0.164-0.01-0.311-0.027-0.438c-1.143,1.225-2.385,1.837-3.727,1.837
			c-1.197,0-2.141-0.385-2.83-1.154c-0.436-0.476-0.652-1.354-0.652-2.637v-1.951c0-0.22,0-0.761,0-1.621c0-0.861,0-2.052,0-3.572
			c0-0.402-0.059-0.649-0.176-0.741s-0.445-0.146-0.986-0.165c-0.469-0.019-0.703-0.092-0.703-0.22c0-0.146,0.129-0.219,0.385-0.219
			h0.301c0.275,0,0.689,0.014,1.248,0.041c0.557,0.027,0.936,0.041,1.137,0.041c0.037,0,0.225-0.014,0.562-0.041
			s0.836-0.041,1.494-0.041h0.521v2.975c0,1.414-0.02,2.452-0.055,3.112c-0.037,0.662-0.055,0.946-0.055,0.854
			c0,1.928,0.123,3.131,0.369,3.608s0.635,0.716,1.164,0.716c0.604,0,1.17-0.339,1.701-1.017c0.164-0.201,0.26-0.407,0.287-0.618
			s0.041-0.729,0.041-1.553v-4.727c0-1.338-0.018-2.144-0.055-2.419c-0.035-0.348-0.26-0.521-0.674-0.521h-0.758
			c-0.252,0-0.377-0.073-0.377-0.22c0-0.109,0.49-0.164,1.473-0.164c0.854,0,2.209-0.009,4.064-0.027c0,0.694,0,1.809,0,3.344v5.564
			c0,0.859,0.018,1.367,0.055,1.521c0.035,0.155,0.174,0.261,0.41,0.315c0.166,0.037,0.658,0.055,1.48,0.055
			C176.052,33.135,176.172,33.208,176.172,33.354z"/>
		<path fill="#005951" d="M186.34,24.089c0,0.53-0.154,0.964-0.465,1.303c-0.311,0.338-0.713,0.507-1.207,0.507
			c-0.986,0-1.48-0.457-1.48-1.371c0-0.311,0.119-0.621,0.357-0.932c0.055-0.073,0.082-0.137,0.082-0.192
			c0-0.164-0.117-0.246-0.352-0.246c-0.613,0-1.082,0.483-1.406,1.449c-0.18,0.547-0.271,1.887-0.271,4.019v1.996v2.406
			c0,0.492,0.248,0.757,0.74,0.793c0.293,0.019,0.641,0.027,1.043,0.027c0.201,0.019,0.301,0.082,0.301,0.192
			c0,0.146-0.082,0.219-0.246,0.219h-0.549c-0.164,0-0.959,0-2.385,0c0.072,0-0.338,0-1.234,0h-1.342h-1.043
			c-0.182,0-0.393,0-0.629,0c-0.201,0-0.303-0.059-0.303-0.178s0.129-0.179,0.385-0.179c0.748-0.018,1.201-0.096,1.355-0.232
			c0.156-0.136,0.234-0.542,0.234-1.217l-0.027-7.382c0-0.619-0.088-1.048-0.262-1.284c-0.174-0.237-0.561-0.384-1.164-0.438
			c-0.475-0.034-0.744-0.06-0.809-0.077c-0.064-0.017-0.096-0.077-0.096-0.18s0.072-0.154,0.219-0.154c0.164,0,0.32,0,0.467,0h0.547
			c1.408,0,2.924-0.292,4.551-0.877c0.092,0.366,0.137,0.786,0.137,1.261v1.151c0.348-0.885,0.727-1.509,1.139-1.87
			c0.41-0.361,0.945-0.542,1.604-0.542c0.621,0,1.127,0.192,1.521,0.576C186.144,23.019,186.34,23.505,186.34,24.089z"/>
		<path fill="#005951" d="M197.469,30.311c0,0.146-0.092,0.575-0.273,1.288c-0.072,0.274-0.174,0.723-0.301,1.344
			c-0.037,0.311-0.092,0.621-0.166,0.932l-0.082,0.356h-0.355h-3.016h-4.961c-0.238,0-0.504,0.018-0.795,0.055
			c-0.293,0.036-0.457,0.055-0.494,0.055c-0.184,0-0.273-0.055-0.273-0.164l0.055-0.165c0.744-1.354,1.861-3.396,3.352-6.124
			c0.629-1.073,1.406-2.411,2.33-4.014l0.568-1.073c-0.201-0.036-0.439-0.055-0.713-0.055c-1.279,0-2.217,0.21-2.811,0.63
			c-0.594,0.421-1.082,1.216-1.467,2.385c-0.092,0.274-0.191,0.412-0.301,0.412c-0.092,0-0.137-0.056-0.137-0.165
			c0-0.055,0.082-0.493,0.246-1.315l0.246-1.233l0.193-1.206h0.41l1.07,0.055l3.836,0.027c1.646,0.019,2.688-0.009,3.125-0.082
			h0.111c0.109,0,0.164,0.036,0.164,0.11c0,0.166-0.539,1.208-1.613,3.126l-4.645,8.272c1.043,0.003,1.656,0.004,1.84,0.004
			c1.354,0,2.35-0.295,2.99-0.885c0.566-0.536,1.043-1.34,1.428-2.412c0.072-0.232,0.164-0.349,0.273-0.349
			S197.469,30.183,197.469,30.311z"/>
		<path fill="#005951" d="M205.144,34.067c0,0.128-0.082,0.191-0.246,0.191h-3.631h-2.623c-0.109,0-0.246,0-0.41,0
			c-0.145,0-0.227,0-0.244,0c-0.219,0-0.328-0.059-0.328-0.176c0-0.087,0.209-0.139,0.631-0.153
			c0.621-0.018,0.986-0.087,1.096-0.206c0.109-0.12,0.164-0.482,0.164-1.089v-7.907c0-0.698-0.059-1.116-0.178-1.254
			s-0.48-0.207-1.082-0.207c-0.385,0-0.609-0.009-0.672-0.027c-0.064-0.018-0.096-0.082-0.096-0.191c0-0.128,0.137-0.192,0.41-0.192
			c2.01-0.018,3.729-0.329,5.154-0.932c0.035,0.219,0.082,0.822,0.137,1.809v3.481v5.153c0,0.75,0.068,1.188,0.205,1.316
			s0.607,0.191,1.412,0.191C205.045,33.875,205.144,33.939,205.144,34.067z M203.226,16.688c0,0.512-0.178,0.95-0.533,1.315
			c-0.355,0.366-0.785,0.548-1.289,0.548c-0.523,0-0.963-0.173-1.318-0.521s-0.533-0.786-0.533-1.316
			c0-0.511,0.178-0.932,0.533-1.261c0.355-0.329,0.812-0.493,1.375-0.493c0.504,0,0.924,0.165,1.26,0.493
			C203.058,15.783,203.226,16.194,203.226,16.688z"/>
		<path fill="#005951" d="M217.068,28.42c0,1.956-0.768,3.536-2.303,4.742c-1.205,0.951-2.531,1.426-3.975,1.426
			c-1.717,0-3.203-0.617-4.455-1.851s-1.877-2.69-1.877-4.372c0-1.754,0.625-3.248,1.877-4.481s2.766-1.851,4.537-1.851
			c1.699,0,3.156,0.626,4.373,1.878C216.461,25.163,217.068,26.666,217.068,28.42z M212.929,28.447c0-2.266-0.154-3.819-0.463-4.66
			c-0.346-0.932-0.9-1.397-1.662-1.397c-0.709,0-1.262,0.489-1.662,1.467s-0.6,2.325-0.6,4.043c0,2.395,0.236,4.094,0.709,5.099
			c0.381,0.805,0.916,1.206,1.607,1.206c0.854,0,1.416-0.512,1.689-1.535C212.802,31.7,212.929,30.294,212.929,28.447z"/>
		<path fill="#00A453" d="M56.969,42.784c0,1.048-0.39,1.891-1.169,2.53c-0.78,0.64-1.815,0.96-3.107,0.96
			c-0.329,0-0.792-0.043-1.389-0.128v4.692c0,0.672,0.045,1.066,0.137,1.183c0.092,0.116,0.43,0.186,1.015,0.21
			c0.329-0.012,0.493,0.04,0.493,0.155c0,0.104-0.098,0.155-0.292,0.155h-0.274c-0.061,0-0.344,0-0.85,0c-0.506,0-1.027,0-1.562,0
			h-2.138c-0.402,0-0.634-0.011-0.694-0.034c-0.062-0.022-0.092-0.057-0.092-0.103c0-0.091,0.098-0.137,0.292-0.137
			c0.597-0.013,0.953-0.067,1.069-0.165c0.116-0.098,0.173-0.379,0.173-0.843v-9.422c0-0.781-0.03-1.252-0.091-1.411
			c-0.061-0.158-0.372-0.238-0.932-0.238c-0.329,0-0.493-0.049-0.493-0.146c0-0.109,0.152-0.165,0.457-0.165l5.227-0.018
			c1.279,0,2.236,0.194,2.869,0.584C56.518,41.005,56.969,41.785,56.969,42.784z M54.026,42.884c0-1.809-0.566-2.713-1.699-2.713
			c-0.683,0-1.023,0.299-1.023,0.897v4.804c0.5,0,0.84-0.019,1.023-0.055c0.353-0.062,0.658-0.202,0.914-0.422
			C53.764,44.931,54.026,44.094,54.026,42.884z"/>
		<path fill="#00A453" d="M63.62,49.984c0,0.816-0.249,1.477-0.747,1.982c-0.498,0.506-1.142,0.759-1.931,0.759
			c-0.389,0-0.85-0.098-1.384-0.293c-0.438-0.158-0.723-0.237-0.856-0.237c-0.23,0-0.383,0.089-0.456,0.265
			c-0.073,0.177-0.127,0.266-0.164,0.266c-0.073,0-0.109-0.044-0.109-0.129c0-0.074,0.01-0.19,0.029-0.35
			c0.029-0.233,0.044-0.638,0.044-1.214c0-0.025,0-0.086,0-0.185c0-0.098,0-0.232,0-0.404v-0.312c0-0.135,0.03-0.203,0.091-0.203
			c0.072,0,0.127,0.092,0.164,0.274c0.109,0.646,0.418,1.186,0.928,1.617c0.509,0.433,1.08,0.649,1.71,0.649
			c0.4,0,0.725-0.125,0.974-0.375s0.373-0.576,0.373-0.978c0-0.316-0.116-0.585-0.347-0.805c-0.171-0.158-0.627-0.358-1.371-0.603
			c-0.914-0.305-1.575-0.673-1.983-1.105s-0.612-0.984-0.612-1.654c0-0.719,0.243-1.327,0.731-1.827
			c0.487-0.5,1.084-0.749,1.791-0.749c0.268,0,0.731,0.085,1.389,0.256c0.097,0.024,0.17,0.036,0.219,0.036
			c0.268,0,0.469-0.164,0.603-0.493c0.024-0.061,0.055-0.092,0.091-0.092c0.085,0,0.128,0.073,0.128,0.22l-0.018,0.347
			c-0.012,0.049-0.019,0.135-0.019,0.256c0,0.5,0.03,1.012,0.091,1.535v0.092c0,0.098-0.036,0.146-0.109,0.146
			c-0.061,0-0.11-0.056-0.146-0.165c-0.353-1.242-1.072-1.864-2.156-1.864c-0.402,0-0.734,0.11-0.996,0.329
			c-0.262,0.22-0.393,0.5-0.393,0.841c0,0.317,0.109,0.566,0.329,0.749c0.22,0.183,0.646,0.391,1.279,0.621
			c1.108,0.391,1.858,0.78,2.248,1.17C63.425,48.748,63.62,49.289,63.62,49.984z"/>
		<path fill="#00A453" d="M69.34,52.396c0,0.085-0.055,0.128-0.164,0.128h-2.422h-1.748c-0.073,0-0.164,0-0.273,0
			c-0.097,0-0.152,0-0.164,0c-0.146,0-0.219-0.039-0.219-0.117c0-0.059,0.14-0.093,0.42-0.103c0.414-0.012,0.658-0.058,0.731-0.138
			c0.073-0.079,0.11-0.321,0.11-0.726V46.17c0-0.466-0.04-0.744-0.119-0.836s-0.32-0.138-0.722-0.138
			c-0.256,0-0.405-0.006-0.448-0.019c-0.043-0.012-0.064-0.055-0.064-0.128c0-0.085,0.091-0.128,0.274-0.128
			c1.34-0.012,2.485-0.22,3.436-0.621c0.024,0.146,0.055,0.548,0.091,1.206v2.32v3.437c0,0.499,0.045,0.792,0.137,0.877
			c0.092,0.085,0.405,0.128,0.941,0.128C69.273,52.268,69.34,52.311,69.34,52.396z M68.061,40.81c0,0.341-0.119,0.633-0.355,0.877
			s-0.523,0.365-0.859,0.365c-0.349,0-0.642-0.115-0.879-0.347s-0.355-0.524-0.355-0.878c0-0.341,0.118-0.621,0.355-0.841
			c0.237-0.219,0.542-0.328,0.916-0.328c0.336,0,0.617,0.109,0.841,0.328C67.948,40.207,68.061,40.481,68.061,40.81z"/>
		<path fill="#00A453" d="M76.96,46.256c0,0.293-0.085,0.53-0.256,0.713c-0.171,0.183-0.39,0.274-0.658,0.274
			c-0.646,0-0.969-0.286-0.969-0.859c0-0.146,0.04-0.319,0.119-0.521s0.119-0.345,0.119-0.43c0-0.231-0.089-0.43-0.265-0.594
			c-0.177-0.165-0.393-0.247-0.649-0.247c-1.108,0-1.663,1.237-1.663,3.71c0,1.413,0.243,2.425,0.731,3.033
			c0.377,0.464,0.84,0.694,1.389,0.694c0.573,0,1.157-0.371,1.754-1.114c0.073-0.098,0.14-0.146,0.201-0.146
			c0.048,0,0.073,0.037,0.073,0.11c0,0.231-0.219,0.554-0.658,0.968c-0.634,0.598-1.395,0.896-2.284,0.896
			c-1.097,0-2.032-0.393-2.805-1.179c-0.774-0.785-1.161-1.738-1.161-2.859c0-1.219,0.408-2.245,1.225-3.079
			c0.816-0.835,1.821-1.252,3.015-1.252c0.768,0,1.417,0.183,1.946,0.548S76.96,45.732,76.96,46.256z"/>
		<path fill="#00A453" d="M86.006,48.632c0,1.304-0.512,2.357-1.535,3.161c-0.804,0.634-1.688,0.95-2.65,0.95
			c-1.146,0-2.135-0.411-2.97-1.233S77.6,49.716,77.6,48.594c0-1.169,0.417-2.165,1.252-2.987s1.843-1.233,3.024-1.233
			c1.133,0,2.104,0.417,2.915,1.252C85.601,46.46,86.006,47.462,86.006,48.632z M83.247,48.65c0-1.511-0.103-2.547-0.309-3.107
			c-0.23-0.621-0.6-0.932-1.108-0.932c-0.472,0-0.842,0.326-1.108,0.978c-0.267,0.652-0.399,1.551-0.399,2.695
			c0,1.597,0.157,2.729,0.472,3.399c0.254,0.536,0.611,0.804,1.071,0.804c0.569,0,0.945-0.341,1.126-1.023
			C83.162,50.818,83.247,49.881,83.247,48.65z"/>
		<path fill="#00A453" d="M91.817,52.386c0,0.092-0.23,0.138-0.692,0.138c-0.109,0-0.449-0.013-1.02-0.037
			c-0.292-0.012-0.577-0.018-0.856-0.018c-0.267,0-0.765,0.012-1.493,0.036l-0.546,0.019c-0.268,0.012-0.401-0.03-0.401-0.128
			s0.14-0.14,0.42-0.128c0.426,0.013,0.673-0.03,0.74-0.128c0.067-0.097,0.101-0.462,0.101-1.095v-9.616
			c0-0.413-0.043-0.659-0.13-0.738s-0.34-0.119-0.759-0.119c-0.309,0-0.463-0.045-0.463-0.136c0-0.104,0.158-0.161,0.473-0.175
			c1.358-0.049,2.467-0.256,3.328-0.621c0,0.365,0,2.504,0,6.414v4.551c0,0.828,0.021,1.312,0.064,1.453
			c0.042,0.14,0.192,0.204,0.448,0.191h0.548C91.738,52.25,91.817,52.296,91.817,52.386z"/>
		<path fill="#00A453" d="M100.808,48.632c0,1.304-0.512,2.357-1.534,3.161c-0.804,0.634-1.688,0.95-2.65,0.95
			c-1.146,0-2.135-0.411-2.97-1.233s-1.252-1.794-1.252-2.915c0-1.169,0.417-2.165,1.252-2.987s1.843-1.233,3.024-1.233
			c1.133,0,2.104,0.417,2.915,1.252C100.404,46.46,100.808,47.462,100.808,48.632z M98.049,48.65c0-1.511-0.103-2.547-0.309-3.107
			c-0.23-0.621-0.6-0.932-1.108-0.932c-0.472,0-0.842,0.326-1.108,0.978c-0.267,0.652-0.399,1.551-0.399,2.695
			c0,1.597,0.157,2.729,0.472,3.399c0.254,0.536,0.611,0.804,1.071,0.804c0.569,0,0.945-0.341,1.126-1.023
			C97.964,50.818,98.049,49.881,98.049,48.65z"/>
		<path fill="#00A453" d="M111.408,45.561c0,0.646-0.311,0.969-0.932,0.969c-0.574,0-0.859-0.262-0.859-0.786
			c0-0.085,0.021-0.183,0.064-0.292c0.043-0.11,0.062-0.189,0.062-0.238c0-0.207-0.109-0.311-0.328-0.311
			c-0.146,0-0.283,0.064-0.41,0.192c-0.129,0.128-0.193,0.271-0.193,0.43c0,0.072,0.049,0.207,0.146,0.401
			c0.232,0.451,0.348,0.871,0.348,1.261c0,0.914-0.42,1.676-1.258,2.285c-0.643,0.463-1.434,0.694-2.368,0.694
			c-0.39,0-0.839-0.078-1.349-0.234c-0.134-0.039-0.249-0.059-0.347-0.059c-0.23,0-0.428,0.071-0.592,0.213
			c-0.164,0.143-0.246,0.318-0.246,0.528c0,0.444,0.346,0.666,1.039,0.666c0.522,0,1.3-0.073,2.333-0.219
			c0.256-0.037,0.498-0.055,0.729-0.055c0.814,0,1.445,0.204,1.896,0.611c0.449,0.409,0.674,0.984,0.674,1.728
			c0,1.193-0.461,2.144-1.381,2.851c-0.92,0.706-2.158,1.06-3.718,1.06c-1.096,0-1.964-0.191-2.604-0.576
			c-0.64-0.384-0.96-0.912-0.96-1.583c0-1.013,0.743-1.623,2.229-1.83c-0.889-0.354-1.334-0.891-1.334-1.61
			c0-0.976,0.572-1.641,1.718-1.995c-1.121-0.573-1.681-1.378-1.681-2.415c0-0.817,0.356-1.507,1.068-2.068
			c0.713-0.561,1.581-0.842,2.604-0.842c1.182,0,2.102,0.329,2.76,0.987c0.463-0.597,1.01-0.896,1.645-0.896
			C110.994,44.428,111.408,44.806,111.408,45.561z M108.867,54.406c0-0.901-0.529-1.353-1.59-1.353
			c-0.512,0-1.182,0.067-2.009,0.201c-0.598,0.098-1.042,0.146-1.334,0.146h-0.274c-0.341,0.414-0.512,0.926-0.512,1.535
			c0,1.291,0.841,1.937,2.521,1.937c0.903,0,1.661-0.237,2.276-0.712C108.56,55.685,108.867,55.1,108.867,54.406z M107.095,47.362
			c0-1.858-0.445-2.788-1.334-2.788c-0.89,0-1.334,0.844-1.334,2.531c0,1.015,0.109,1.742,0.329,2.182
			c0.219,0.44,0.585,0.66,1.097,0.66c0.475,0,0.801-0.186,0.977-0.559S107.095,48.34,107.095,47.362z"/>
		<path fill="#00A453" d="M119.174,51.539c0,0.099-0.098,0.234-0.293,0.407c-0.523,0.483-1.168,0.724-1.936,0.724
			c-0.5,0-0.863-0.104-1.088-0.314c-0.227-0.209-0.375-0.586-0.447-1.129c-0.549,0.999-1.299,1.499-2.248,1.499
			c-0.523,0-0.947-0.165-1.27-0.494c-0.324-0.329-0.484-0.755-0.484-1.279c0-1.535,1.314-2.442,3.947-2.723v-0.384
			c0-1.218-0.043-1.967-0.129-2.248l-0.018-0.091c-0.172-0.609-0.604-0.914-1.297-0.914c-0.402,0-0.727,0.116-0.969,0.348
			c-0.244,0.231-0.367,0.457-0.367,0.676c0,0.122,0.146,0.195,0.439,0.22c0.439,0.036,0.658,0.305,0.658,0.804
			c0,0.269-0.088,0.49-0.266,0.667c-0.176,0.177-0.404,0.265-0.686,0.265c-0.354,0-0.643-0.106-0.867-0.319
			c-0.227-0.213-0.338-0.484-0.338-0.813c0-0.523,0.262-0.999,0.785-1.425c0.523-0.427,1.213-0.64,2.064-0.64
			c1.268,0,2.15,0.226,2.65,0.676c0.402,0.378,0.604,1.036,0.604,1.974v3.125c0,0.609,0.006,0.963,0.018,1.06
			c0.061,0.512,0.238,0.768,0.531,0.768c0.207,0,0.463-0.146,0.768-0.438c0.061-0.061,0.109-0.091,0.145-0.091
			C119.144,51.446,119.174,51.477,119.174,51.539z M115.355,49.362v-0.896c-1.182,0.232-1.773,0.902-1.773,2.011
			c0,0.853,0.293,1.279,0.877,1.279c0.33,0,0.561-0.183,0.695-0.549C115.287,50.843,115.355,50.227,115.355,49.362z"/>
	</g>
</g>
</svg>
