<?xml version="1.0" encoding="utf-8"?>
<!-- Generator: Adobe Illustrator 23.0.1, SVG Export Plug-In . SVG Version: 6.00 Build 0)  -->
<svg version="1.1" id="Layer_1" xmlns="http://www.w3.org/2000/svg" xmlns:xlink="http://www.w3.org/1999/xlink" x="0px" y="0px"
	 viewBox="0 0 492 492" style="enable-background:new 0 0 492 492;" xml:space="preserve">
<style type="text/css">
	.st0{fill:#F5F5F5;}
</style>
<g>
	<g>
		<path class="st0" d="M109.5,430c-10.5,10.5-10.5,27.6,0,38.1l16.1,16.1c5.1,5.1,11.8,7.9,19,7.9c7.2,0,14-2.8,19-7.9l218.9-218.9
			c5.1-5.1,7.9-11.9,7.8-19.1c0-7.2-2.8-14-7.8-19.1L163.5,7.9c-5.1-5.1-11.8-7.9-19-7.9s-14,2.8-19,7.9L109.3,24
			c-5.1,5.1-7.9,11.8-7.9,19c0,7.2,2.8,14,7.9,19l184.1,184.1L109.5,430z"/>
	</g>
</g>
</svg>
